<?xml version="1.0" encoding="UTF-8" standalone="no"?>
<svg
   width="16"
   height="17"
   viewBox="0 0 16 17"
   fill="none"
   version="1.1"
   id="svg2"
   sodipodi:docname="netactionactions réseaux.svg"
   inkscape:version="1.3 (0e150ed6c4, 2023-07-21)"
   xmlns:inkscape="http://www.inkscape.org/namespaces/inkscape"
   xmlns:sodipodi="http://sodipodi.sourceforge.net/DTD/sodipodi-0.dtd"
   xmlns="http://www.w3.org/2000/svg"
   xmlns:svg="http://www.w3.org/2000/svg">
  <defs
     id="defs2" />
  <sodipodi:namedview
     id="namedview2"
     pagecolor="#ffffff"
     bordercolor="#000000"
     borderopacity="0.25"
     inkscape:showpageshadow="2"
     inkscape:pageopacity="0.0"
     inkscape:pagecheckerboard="0"
     inkscape:deskcolor="#d1d1d1"
     inkscape:zoom="46.294118"
     inkscape:cx="7.9923761"
     inkscape:cy="8.5"
     inkscape:window-width="1920"
     inkscape:window-height="1001"
     inkscape:window-x="-9"
     inkscape:window-y="-9"
     inkscape:window-maximized="1"
     inkscape:current-layer="svg2" />
  <path
     d="M14.499 1.40017C14.5919 1.40101 14.6808 1.43836 14.7465 1.50419C14.8122 1.57002 14.8495 1.65906 14.8503 1.75216V14.8397C14.8495 14.9328 14.8122 15.0218 14.7465 15.0877C14.6808 15.1535 14.5919 15.1909 14.499 15.1917H1.46924C1.37633 15.1909 1.28746 15.1535 1.22176 15.0877C1.15606 15.0218 1.11878 14.9328 1.11795 14.8397V1.78416C1.11878 1.69106 1.15606 1.60202 1.22176 1.53619C1.28746 1.47036 1.37633 1.433 1.46924 1.43217H14.499V1.40017ZM14.499 0.312209H1.46924C1.27544 0.309007 1.08298 0.344893 0.903303 0.417732C0.723626 0.49057 0.560406 0.598874 0.423351 0.7362C0.286296 0.873526 0.178206 1.03707 0.105511 1.2171C0.0328161 1.39713 -0.00299893 1.58998 0.000196449 1.78416V14.8717C0.000149173 15.0635 0.0383523 15.2534 0.112563 15.4302C0.186773 15.6071 0.295494 15.7672 0.432343 15.9014C0.569192 16.0355 0.731409 16.1409 0.90947 16.2114C1.08753 16.2818 1.27785 16.3159 1.46924 16.3117H14.531C14.724 16.3122 14.9153 16.2744 15.0937 16.2006C15.2722 16.1268 15.4343 16.0184 15.5709 15.8817C15.7074 15.7449 15.8156 15.5824 15.8892 15.4036C15.9628 15.2248 16.0005 15.0331 16 14.8397V1.78416C15.9939 1.39014 15.8327 1.01448 15.5517 0.738841C15.2706 0.463206 14.8923 0.309884 14.499 0.312209Z"
     fill="#333333"
     id="path1" />
  <path
     d="M11.7525 3.99219V7.38419H10.6987V3.99219H9.58091V7.38419H8.52704V3.99219H7.44122V7.38419H6.38734V3.99219H5.26959V7.38419H4.21571V3.99219H3.1299V10.0402L6.45121 12.6322H9.58091L12.8384 10.0402V3.99219H11.7525Z"
     fill="#333333"
     id="path2" />
  <path
     style="fill:#ffffff;stroke-width:0.021601"
     d="M 1.1232529,16.286064 C 1.0460292,16.269526 0.89302633,16.2116 0.78324644,16.157339 0.45146185,15.993349 0.19261631,15.695434 0.06086362,15.325921 L 0.01080051,15.185515 0.00523273,8.3744821 C -9.354493e-4,0.82899612 -0.01226298,1.4374746 0.14021164,1.1238497 0.32501818,0.74372136 0.65037749,0.47371015 1.0700088,0.35222385 l 0.1720496,-0.0498096 h 6.7287167 c 6.3945709,0 6.7362259,0.00192 6.8799239,0.0386614 0.501491,0.12822362 0.91196,0.50378032 1.08151,0.98952115 l 0.06334,0.1814745 0.006,6.7395171 c 0.0067,7.5272536 0.0196,6.8917096 -0.147225,7.2363406 -0.153454,0.316998 -0.384295,0.545004 -0.701191,0.692579 -0.321971,0.149938 0.237576,0.139245 -7.1868275,0.137343 -5.6404129,-0.0014 -6.7248773,-0.0065 -6.8430326,-0.03179 z M 14.66731,15.126112 c 0.03928,-0.02673 0.09175,-0.07605 0.1166,-0.109589 l 0.04519,-0.06099 V 8.2947903 1.6340448 L 14.78456,1.5743928 C 14.76007,1.5415838 14.71623,1.4969738 14.68714,1.4752588 14.63619,1.4372158 14.393302,1.4357908 8.0245608,1.4361568 l -6.6096972,3.797e-4 -0.095743,0.049098 c -0.0673,0.034514 -0.1106525,0.077297 -0.145942,0.1440303 l -0.050202,0.094933 0.00554,6.6154703 0.00554,6.6154699 0.045188,0.06099 c 0.024854,0.03354 0.077323,0.08286 0.1165997,0.109588 l 0.071412,0.0486 h 6.6143227 6.614322 z"
     id="path3" />
  <path
     style="fill:#ffffff;stroke-width:0.021601"
     d="M 5.0114358,11.522306 C 4.2213787,10.904757 3.4704733,10.31729 3.3427573,10.216823 L 3.1105464,10.034156 V 7.009772 3.9853875 H 3.6721728 4.2337992 V 5.6810673 7.3767471 H 4.7522236 5.270648 V 5.6810673 3.9853875 H 5.8322745 6.3939009 V 5.6810673 7.3767471 H 6.9123253 7.4307497 V 5.6810673 3.9853875 H 7.9815756 8.5324015 V 5.6810673 7.3767471 H 9.0508259 9.5692503 V 5.6810673 3.9853875 h 0.5724267 0.572427 v 1.6956798 1.6956798 h 0.518425 0.518424 V 5.6810673 3.9853875 h 0.550826 0.550826 l -3.71e-4,3.0295426 -3.7e-4,3.0295429 -1.635907,1.301158 -1.6359062,1.301158 -1.5660737,-8.34e-4 -1.5660737,-8.33e-4 z"
     id="path4" />
</svg>
