<?xml version="1.0" encoding="UTF-8" standalone="no"?>
<!-- Generator: Adobe Illustrator 22.1.0, SVG Export Plug-In . SVG Version: 6.00 Build 0)  -->

<svg
   version="1.1"
   id="antivirus"
   x="0px"
   y="0px"
   viewBox="0 0 50 50"
   enable-background="new 0 0 50 50"
   xml:space="preserve"
   sodipodi:docname="plugin-antivirus.svg"
   inkscape:version="1.1 (c68e22c387, 2021-05-23)"
   xmlns:inkscape="http://www.inkscape.org/namespaces/inkscape"
   xmlns:sodipodi="http://sodipodi.sourceforge.net/DTD/sodipodi-0.dtd"
   xmlns="http://www.w3.org/2000/svg"
   xmlns:svg="http://www.w3.org/2000/svg"><defs
   id="defs21" /><sodipodi:namedview
   id="namedview19"
   pagecolor="#ffffff"
   bordercolor="#666666"
   borderopacity="1.0"
   inkscape:pageshadow="2"
   inkscape:pageopacity="0.0"
   inkscape:pagecheckerboard="0"
   showgrid="false"
   inkscape:zoom="32"
   inkscape:cx="10.796875"
   inkscape:cy="44.296875"
   inkscape:window-width="1920"
   inkscape:window-height="1017"
   inkscape:window-x="1912"
   inkscape:window-y="-8"
   inkscape:window-maximized="1"
   inkscape:current-layer="antivirus" />
<g
   id="g16">
	<g
   id="g8">
		<path
   fill="#333333"
   d="M10.9,25.3c3.6,0,6.7,1.7,8.6,4.4l2.8-1.7c0-0.1,0.4-0.3,0.4-0.4c0-1.2,0.6-2.3,2.3-2.8v-3    c-3.3-0.2-4.1-0.9-5.7-2.1c-4.7-3.6-5.9-10.3-2.3-15c0.9-1.2,1.8-2.1,3-2.8c-2.3,0.9-4.4,2.5-6,4.6c-3,3.9-3.6,8.9-2.1,13.3    C5.2,20.9,0,26.8,0,33.8c0,0.9,0.1,1.7,0.2,2.5c0-0.1,0-0.2,0-0.3C0.2,30.1,5,25.3,10.9,25.3z"
   id="path2" />
		<path
   fill="#333333"
   d="M29.4,40.1c-1.2-2.9-1.1-6.1,0.2-8.7l-2.4-1.5c-0.5,0.4-1.2,0.7-1.9,0.7c-0.7,0-1.4-0.3-1.9-0.7l-2.7,1.7    c0.6,1.4,1,2.9,1,4.5c0,5.9-4.8,10.7-10.7,10.7c-1.4,0-2.8-0.3-4.1-0.8c2.1,1.3,4.6,2,7.2,2c4.4,0,8.4-2,10.9-5.2    c3.8,4.8,10.5,6.6,16.4,4.1c0.8-0.3,1.5-0.7,2.2-1.2c-0.1,0-0.2,0.1-0.3,0.1C37.9,48.1,31.6,45.6,29.4,40.1z"
   id="path4" />
		<path
   fill="#333333"
   d="M48.9,28.3c-1.9-4.6-6-7.6-10.5-8.4c2-5.7,0.3-12.2-4.8-16.1c-0.7-0.5-1.4-1-2.2-1.3    c0.1,0.1,0.2,0.1,0.3,0.2c4.7,3.6,5.8,10.3,2.3,15c-1.9,2.5-5.6,3.9-7.3,4.2v2.9c1.7,0.4,1.7,1.5,1.7,2.8c0,0.1-0.1,0.3-0.2,0.4    l2.4,1.5c1.1-1.5,2.6-2.7,4.4-3.5c5.4-2.3,11.7,0.2,14,5.7c0.6,1.3,0.8,2.7,0.8,4.1C50.2,33.4,49.9,30.8,48.9,28.3z"
   id="path6" />
	</g>
	<path
   fill="#333333"
   d="M25.3,12.4c-3.2,0-6.1,1-8.5,2.7c0.6,1.3,1.6,2.4,2.7,3.3c1.7-1.1,3.6-1.7,5.8-1.7c2.1,0,4.1,0.6,5.7,1.7   c1.1-0.9,2-2,2.7-3.3C31.3,13.4,28.4,12.4,25.3,12.4z"
   id="path10" />
	<path
   fill="#333333"
   d="M40,27.2c0-0.2,0-0.4,0-0.5c-1.5-0.1-2.9,0.2-4.2,0.7c-0.1,4-2.3,7.5-5.7,9.3c0.1,1.4,0.5,2.8,1.2,4   C36.5,38.4,40,33.2,40,27.2z"
   id="path12" />
	<path
   fill="#333333"
   d="M14.7,27.6c-1.3-0.6-2.7-1-4.1-1c0,0.2,0,0.4,0,0.6c0,5.8,3.4,10.9,8.2,13.3c0.7-1.2,1.1-2.6,1.1-4.1   C16.9,34.6,14.8,31.4,14.7,27.6z"
   id="path14" />
</g>
<path
   style="fill:#ffffff;stroke-width:0.0615764;fill-opacity:1"
   d="m 49.735635,35.027464 c -0.07669,-1.561589 -0.46554,-2.895473 -1.268822,-4.352474 -1.523248,-2.762882 -4.168217,-4.67787 -7.344043,-5.317173 -0.92326,-0.185856 -2.905136,-0.201955 -3.776711,-0.03068 -1.450907,0.285122 -2.663109,0.765178 -3.910098,1.548477 -0.801888,0.503706 -2.02269,1.60511 -2.559867,2.309503 -0.130007,0.170476 -0.258686,0.309956 -0.285955,0.309956 -0.03844,0 -2.264334,-1.362068 -2.384932,-1.459388 -0.01515,-0.01223 0.01948,-0.101857 0.07697,-0.199175 0.118088,-0.199906 0.131465,-0.598604 0.04295,-1.28 -0.116712,-0.898427 -0.532593,-1.38532 -1.431652,-1.676106 l -0.230911,-0.07468 V 23.33808 21.870435 l 0.261699,-0.04266 c 0.437898,-0.07138 2.008286,-0.61061 2.692029,-0.924376 3.563757,-1.635391 5.530523,-3.99753 6.231594,-7.484313 0.187684,-0.933449 0.201333,-2.826518 0.02727,-3.7823845 -0.473989,-2.6029287 -1.820214,-4.9363294 -3.802884,-6.591507 -0.292825,-0.2444564 -0.569918,-0.4577942 -0.615764,-0.474084 -0.04584,-0.01629 -0.06738,-0.047076 -0.04786,-0.068415 0.05591,-0.061106 1.040134,0.4642696 1.641988,0.8764874 2.704373,1.8522609 4.724984,4.6353301 5.612023,7.7296661 0.44642,1.557287 0.585302,2.672122 0.541512,4.346818 -0.01815,0.694273 -0.07723,1.539409 -0.131281,1.878079 -0.09213,0.577273 -0.444599,2.025168 -0.579147,2.379057 -0.05899,0.155157 -0.05214,0.160683 0.288801,0.23279 3.841082,0.812371 7.099037,3.096273 9.159221,6.420826 1.495212,2.412847 2.270678,5.702793 1.999928,8.484773 -0.04115,0.422772 -0.09594,0.806437 -0.121768,0.852587 -0.02583,0.04615 -0.06376,-0.25819 -0.08429,-0.676313 z"
   id="path1296" /><path
   style="fill:#ffffff;fill-opacity:1;stroke-width:0.0615764"
   d="M 0.16751176,36.14532 C 0.00603599,35.551772 -0.05606696,33.179586 0.06429852,32.202818 0.44458133,29.116817 1.7595109,26.322311 3.9102379,24.029377 c 1.8528497,-1.97536 4.5597646,-3.516554 7.1735061,-4.084268 0.355603,-0.07724 0.66952,-0.159632 0.697592,-0.183098 0.02807,-0.02347 -0.03332,-0.343895 -0.136424,-0.712066 -0.553309,-1.97576 -0.699716,-4.191174 -0.404374,-6.118911 0.212176,-1.3849 0.719442,-2.9863967 1.334142,-4.2120365 1.082598,-2.1585756 2.943561,-4.2390684 5.005369,-5.5958292 0.565257,-0.3719639 2.199692,-1.2143013 2.356178,-1.2143013 0.04752,0 -0.116809,0.1362993 -0.365181,0.3028873 -1.469438,0.9855771 -2.849121,2.6343524 -3.688333,4.4077038 -1.681621,3.5534559 -1.086951,7.9401069 1.516001,11.1829449 0.881822,1.098601 2.66187,2.560789 3.81434,3.13322 0.867601,0.430935 1.901327,0.683493 3.232759,0.78982 l 0.523399,0.0418 0.01647,1.525534 c 0.01524,1.41175 0.0084,1.528385 -0.09237,1.563776 -1.250657,0.43945 -1.963971,1.213808 -2.124343,2.306139 -0.05415,0.368836 -0.101769,0.491819 -0.253108,0.653705 -0.156683,0.167603 -2.778203,1.817597 -2.979469,1.875289 -0.03628,0.0104 -0.212334,-0.173583 -0.391234,-0.408849 -0.178901,-0.235266 -0.548874,-0.651356 -0.822162,-0.924645 -2.472302,-2.472301 -6.05992,-3.521179 -9.5860884,-2.802591 -2.1780591,0.44386 -4.3310524,1.684172 -5.7694575,3.323711 -1.7018181,1.939786 -2.58220809,4.085601 -2.71584735,6.619458 -0.0246531,0.467434 -0.059644,0.736443 -0.084099,0.646552 z"
   id="path1409" /><path
   style="fill:#ffffff;fill-opacity:1;stroke-width:0.0615764"
   d="m 18.975175,17.981341 c -0.446258,-0.39388 -1.10539,-1.127396 -1.494904,-1.663607 -0.255761,-0.352084 -0.669948,-1.07794 -0.669641,-1.173532 7.45e-4,-0.231534 2.133786,-1.403953 3.408379,-1.873406 0.782448,-0.288187 2.036229,-0.607577 2.9337,-0.747335 1.004173,-0.156374 3.274099,-0.158064 4.217981,-0.0031 1.607699,0.263877 2.929426,0.682835 4.310344,1.366282 0.508005,0.251423 1.181944,0.624632 1.497641,0.829353 l 0.573996,0.372221 -0.138845,0.229927 c -0.660694,1.094112 -1.121816,1.690475 -1.910873,2.471301 -0.345665,0.34206 -0.648502,0.621927 -0.672971,0.621927 -0.02447,0 -0.234359,-0.115631 -0.466423,-0.256958 -0.913829,-0.556522 -2.040388,-0.988738 -3.192869,-1.224979 -0.792423,-0.162434 -2.545734,-0.226612 -3.397551,-0.124363 -1.43138,0.171817 -2.873697,0.664442 -4.092031,1.39764 -0.190699,0.114763 -0.362934,0.20866 -0.382744,0.20866 -0.01981,0 -0.255246,-0.193495 -0.523189,-0.429989 z"
   id="path1448" /><path
   style="fill:#ffffff;fill-opacity:1;stroke-width:0.0615764"
   d="m 18.226601,40.222534 c -2.647688,-1.489399 -4.756509,-3.720339 -6.094948,-6.447903 -0.991857,-2.021274 -1.457054,-3.868384 -1.523668,-6.049877 l -0.03431,-1.123769 h 0.400912 c 0.807631,0 2.200697,0.325608 3.218691,0.75232 l 0.492535,0.206455 0.04398,0.367287 c 0.135857,1.1346 0.197634,1.509044 0.33319,2.019543 0.679465,2.558838 2.2552,4.723752 4.53334,6.228385 l 0.353705,0.233611 -0.03531,0.437948 c -0.05673,0.703551 -0.195789,1.463007 -0.369231,2.016501 -0.170683,0.544688 -0.674045,1.654304 -0.750345,1.654066 -0.02482,-6.2e-5 -0.280664,-0.132633 -0.568533,-0.294567 z"
   id="path1487" /><path
   style="fill:#ffffff;fill-opacity:1;stroke-width:0.0615764"
   d="M 12.715517,47.964976 C 11.408064,47.830725 9.8821159,47.445519 8.7130542,46.954605 7.9576956,46.637413 6.8484455,46.044361 6.9482819,46.011082 c 0.035527,-0.01184 0.1146226,0.0052 0.1757674,0.03785 0.1723557,0.09206 1.348365,0.420101 1.9020377,0.530567 1.590457,0.317322 3.598852,0.196472 5.214888,-0.313792 2.938907,-0.92796 5.415261,-3.216125 6.630627,-6.126737 1.028132,-2.462218 1.048349,-5.233023 0.05747,-7.876758 -0.13997,-0.373447 -0.244171,-0.68683 -0.23156,-0.696406 0.01261,-0.0096 0.624916,-0.395141 1.36068,-0.856812 l 1.33775,-0.839401 0.313843,0.20669 c 0.796904,0.524823 1.901859,0.619603 2.725786,0.233811 0.23076,-0.108051 0.496819,-0.251466 0.591241,-0.3187 l 0.171676,-0.122244 1.194474,0.744344 c 0.65696,0.40939 1.203556,0.752256 1.214656,0.761924 0.0111,0.0097 -0.07938,0.244027 -0.201069,0.520797 -1.195075,2.718093 -1.059356,6.05776 0.363095,8.934762 1.758612,3.556908 5.359524,5.78007 9.362126,5.78007 1.313172,0 2.384306,-0.194005 3.738771,-0.677169 0.376479,-0.134297 0.694066,-0.234618 0.705749,-0.222935 0.03702,0.03703 -0.809199,0.57626 -1.262827,0.804703 -3.532161,1.778768 -7.756184,2.004014 -11.432924,0.609661 -1.33964,-0.508039 -2.849782,-1.392713 -3.940887,-2.308657 -0.528365,-0.443544 -1.414508,-1.325505 -1.77247,-1.764106 L 25,42.847694 24.83569,43.052541 c -0.354191,0.441577 -1.741123,1.773684 -2.237168,2.148735 -1.815275,1.372499 -4.068626,2.312218 -6.40761,2.672176 -0.774938,0.119259 -2.7092,0.170198 -3.475395,0.09152 z"
   id="path1526" /><path
   style="fill:#ffffff;fill-opacity:1;stroke-width:0.0615764"
   d="m 31.235207,40.62639 c -0.396413,-0.493312 -0.985666,-2.335467 -1.114026,-3.482724 l -0.0502,-0.448699 0.48132,-0.286309 c 0.94875,-0.564358 1.958486,-1.424819 2.729688,-2.326146 1.364704,-1.594968 2.291061,-3.911685 2.465125,-6.165006 l 0.04338,-0.561557 0.623842,-0.194869 c 1.006053,-0.31426 1.715524,-0.439856 2.711746,-0.480055 l 0.917951,-0.03704 -0.03831,1.040693 c -0.122795,3.33607 -1.189537,6.249023 -3.233638,8.830101 -1.21519,1.534417 -3.065449,3.03322 -4.844747,3.92449 -0.495798,0.248351 -0.616672,0.281029 -0.692133,0.187122 z"
   id="path1565" /></svg>
