<?xml version="1.0" encoding="UTF-8" standalone="no"?>
<svg
   width="13"
   height="16"
   viewBox="0 0 13 16"
   fill="none"
   version="1.1"
   id="svg3"
   sodipodi:docname="customscriptcustom script.svg"
   inkscape:version="1.3 (0e150ed6c4, 2023-07-21)"
   xmlns:inkscape="http://www.inkscape.org/namespaces/inkscape"
   xmlns:sodipodi="http://sodipodi.sourceforge.net/DTD/sodipodi-0.dtd"
   xmlns="http://www.w3.org/2000/svg"
   xmlns:svg="http://www.w3.org/2000/svg">
  <defs
     id="defs3" />
  <sodipodi:namedview
     id="namedview3"
     pagecolor="#ffffff"
     bordercolor="#000000"
     borderopacity="0.25"
     inkscape:showpageshadow="2"
     inkscape:pageopacity="0.0"
     inkscape:pagecheckerboard="0"
     inkscape:deskcolor="#d1d1d1"
     inkscape:zoom="49.1875"
     inkscape:cx="6.5057179"
     inkscape:cy="8"
     inkscape:window-width="1920"
     inkscape:window-height="1001"
     inkscape:window-x="-9"
     inkscape:window-y="-9"
     inkscape:window-maximized="1"
     inkscape:current-layer="svg3" />
  <path
     d="M0.450195 4.89028C0.450195 4.89028 6.89233 0.139081 7.04302 0.106979C8.36159 -0.406665 10.5466 1.03796 9.52946 2.12945C8.73832 2.96412 4.02916 6.39911 4.02916 6.39911C4.02916 6.39911 3.46406 3.9272 0.450195 4.89028Z"
     fill="#333333"
     id="path1" />
  <path
     d="M3.04979 8.22886L7.68361 4.60126L12.3928 8.22886C12.3928 8.22886 13.4853 9.15984 12.0914 10.2192C10.6975 11.3107 7.15618 14.4247 7.15618 14.4247C7.15618 14.4247 7.11851 13.1406 6.51573 12.6911C5.76227 12.1133 0.374987 8.00414 0.374987 8.00414C0.153264 7.77107 0.0230698 7.48453 0.00279017 7.18499C-0.0174895 6.88546 0.0731707 6.58806 0.261967 6.3348C0.940086 5.46803 2.56004 5.75696 3.01212 6.2385C3.25733 6.52687 3.39248 6.87255 3.39922 7.22862C3.40595 7.58469 3.28396 7.9339 3.04979 8.22886Z"
     fill="#333333"
     id="path2" />
  <path
     d="M4.82055 12.5307L6.17679 13.6222C6.17679 13.6222 6.85491 14.489 6.40283 15.1631C5.95075 15.8694 5.3103 16.0941 4.36847 15.9657C3.42664 15.8373 2.89921 14.7137 3.2006 13.9753C3.50198 13.3012 4.82055 12.5307 4.82055 12.5307Z"
     fill="#333333"
     id="path3" />
  <path
     style="fill:#ffffff;stroke-width:0.0203304"
     d="m 7.1493365,14.410667 c -0.00736,-0.0074 -0.013379,-0.05531 -0.013381,-0.106559 -5.7e-6,-0.136411 -0.071766,-0.553294 -0.1315251,-0.764083 C 6.9358593,13.298156 6.7735042,12.971173 6.6584315,12.843184 6.6075312,12.786571 6.1429449,12.417373 5.6260176,12.022745 4.5946265,11.235369 1.1783782,8.6283783 0.66063423,8.233586 0.41095329,8.0431984 0.31498025,7.9565792 0.24814597,7.8613003 0.07644862,7.616529 -1.7862262e-4,7.3830951 3.0050521e-4,7.106275 0.00135391,6.4976608 0.38560067,6.0211837 1.0162981,5.8464085 1.59465,5.686139 2.3997009,5.79685 2.8553942,6.0993219 3.0647408,6.2382783 3.274328,6.5628911 3.356859,6.8760006 3.411503,7.0833126 3.415207,7.4051086 3.365229,7.6035578 3.3260101,7.759309 3.2207217,8.0034523 3.1481281,8.1069804 3.1227409,8.1431858 3.1153354,8.1626824 3.1316711,8.1503067 3.1480067,8.1379308 4.174525,7.3351353 5.4128228,6.3663168 6.6511207,5.3974982 7.6732867,4.6048285 7.6843029,4.6048285 c 0.016455,0 4.5145371,3.4538311 4.7044181,3.6122657 0.106243,0.088648 0.217055,0.238179 0.30048,0.4054719 0.155941,0.3127101 0.15536,0.6124574 -0.0018,0.9331426 -0.119004,0.2428123 -0.292899,0.4308863 -0.705545,0.7630743 -0.914922,0.73653 -2.4403969,2.033978 -4.2767752,3.637487 -0.5601494,0.489117 -0.5386182,0.471512 -0.5557333,0.454397 z"
     id="path4" />
  <path
     style="fill:#ffffff;stroke-width:0.0203304"
     d="M 4.4737799,15.987352 C 4.2550551,15.962012 4.0998891,15.917817 3.9463181,15.837117 3.5891546,15.649433 3.3341324,15.339284 3.1907713,14.918247 c -0.062726,-0.184219 -0.067864,-0.218765 -0.06892,-0.463355 -0.00131,-0.304133 0.024312,-0.412834 0.1456286,-0.617782 0.1067626,-0.18036 0.3920737,-0.475455 0.6952354,-0.719076 0.2579259,-0.20727 0.8085871,-0.584362 0.8533335,-0.584362 0.01328,0 0.3253643,0.242592 0.6935198,0.539092 0.7048978,0.567702 0.7326132,0.595604 0.8741491,0.880027 0.128271,0.257766 0.1720299,0.429016 0.1724558,0.674909 4.428e-4,0.255575 -0.030584,0.360166 -0.170314,0.574118 -0.40672,0.622764 -1.0469032,0.885768 -1.9120796,0.785534 z"
     id="path5" />
  <path
     style="fill:#ffffff;stroke-width:0.0203304"
     d="M 4.0153689,6.3684879 C 3.8670345,5.9385547 3.6946718,5.6424903 3.4312783,5.3652052 2.990658,4.9013467 2.4524981,4.6861499 1.73311,4.6861499 c -0.3445778,0 -0.6210153,0.037019 -0.99843241,0.133706 -0.1494216,0.038279 -0.2766109,0.069598 -0.28264289,0.069598 -0.032743,0 4.6656413,-3.4403903 5.931701,-4.34348605 C 7.1162488,0.02345696 7.1711874,3.3661398e-4 7.6747141,0.00267087 7.947419,0.00393508 8.004935,0.01070914 8.2185734,0.06672492 9.1225202,0.30373896 9.7992376,0.92887561 9.7992376,1.5269075 c 0,0.2560858 -0.1272368,0.4866827 -0.4182054,0.7579328 C 8.8122749,2.8150532 7.1477176,4.1079549 4.8081321,5.8367217 3.9579338,6.4649502 4.0316013,6.4155359 4.0153689,6.3684879 Z"
     id="path6" />
</svg>
