<?xml version="1.0" encoding="UTF-8" standalone="no"?>
<!-- Generator: Adobe Illustrator 22.1.0, SVG Export Plug-In . SVG Version: 6.00 Build 0)  -->

<svg
   version="1.1"
   id="disk"
   x="0px"
   y="0px"
   viewBox="0 0 50 50"
   enable-background="new 0 0 50 50"
   xml:space="preserve"
   sodipodi:docname="plugin-disk.svg"
   inkscape:version="1.1 (c68e22c387, 2021-05-23)"
   xmlns:inkscape="http://www.inkscape.org/namespaces/inkscape"
   xmlns:sodipodi="http://sodipodi.sourceforge.net/DTD/sodipodi-0.dtd"
   xmlns="http://www.w3.org/2000/svg"
   xmlns:svg="http://www.w3.org/2000/svg"><defs
   id="defs11" /><sodipodi:namedview
   id="namedview9"
   pagecolor="#ffffff"
   bordercolor="#666666"
   borderopacity="1.0"
   inkscape:pageshadow="2"
   inkscape:pageopacity="0.0"
   inkscape:pagecheckerboard="0"
   showgrid="false"
   inkscape:zoom="16.24"
   inkscape:cx="25.030788"
   inkscape:cy="24.907635"
   inkscape:window-width="1920"
   inkscape:window-height="1017"
   inkscape:window-x="3832"
   inkscape:window-y="-8"
   inkscape:window-maximized="1"
   inkscape:current-layer="disk" />
<g
   id="g6"
   style="fill:#ffffff">
	<path
   fill="#333333"
   d="M34.1,21.9c-1.7,0-3.1,1.4-3.1,3c0,1.7,1.4,3,3.1,3c1.7,0,3.1-1.4,3.1-3C37.2,23.2,35.8,21.9,34.1,21.9z"
   id="path2"
   style="fill:#ffffff" />
	<path
   fill="#333333"
   d="M0,7v36h50V7H0z M25.1,8.5c1,0,1.9,0.8,1.9,1.8s-0.8,1.8-1.9,1.8c-1,0-1.9-0.8-1.9-1.8S24.1,8.5,25.1,8.5z    M6.4,10.3H20c0,0,0,2.6,0,4.8c-13.3-1.4-9.3,8.3-9.3,8.3H5c0,0,0-10,0-10.9C6.1,12.3,6.6,11.4,6.4,10.3z M3.6,8   c1,0,1.9,0.8,1.9,1.8c0,1-0.8,1.8-1.9,1.8s-1.9-0.8-1.9-1.8C1.7,8.8,2.5,8,3.6,8z M3.6,42c-1,0-1.9-0.8-1.9-1.8   c0-1,0.8-1.8,1.9-1.8s1.9,0.8,1.9,1.8C5.4,41.2,4.6,42,3.6,42z M13.3,36.5h-5v-9.8h5V36.5z M13.4,22C13.3,22,13.3,22,13.4,22   c-0.1-0.1-0.1-0.1-0.1-0.1c-0.6-0.5-1-1.3-1-2.2c0-1.6,1.3-2.9,2.9-2.9c0.4,0,0.8,0.1,1.2,0.2c0.1,0,0.2,0.1,0.4,0.2c0,0,0,0,0,0   c0.2,0.1,0.4,0.3,0.5,0.4C21.8,21.4,29,28,28.1,29.1c-0.9,1.2-9.9-3.6-14.5-6.9C13.5,22.2,13.5,22.1,13.4,22z M25.1,42   c-1,0-1.9-0.8-1.9-1.8c0-1,0.8-1.8,1.9-1.8c1,0,1.9,0.8,1.9,1.8C27,41.2,26.1,42,25.1,42z M34.1,38.3c-6.7,0-12.3-4.7-13.6-10.9   c4.2,2.3,8.1,3.7,8.8,2.7c1-1.3-3.4-6.1-8.2-10.3c2-5.2,7.1-8.9,13-8.9c7.7,0,13.9,6.1,13.9,13.7C48.1,32.2,41.8,38.3,34.1,38.3z    M46.4,42c-1,0-1.9-0.8-1.9-1.8c0-1,0.8-1.8,1.9-1.8c1,0,1.9,0.8,1.9,1.8C48.3,41.2,47.5,42,46.4,42z M46.4,12.2   c-1,0-1.9-0.8-1.9-1.8s0.8-1.8,1.9-1.8c1,0,1.9,0.8,1.9,1.8S47.5,12.2,46.4,12.2z"
   id="path4"
   style="fill:#ffffff" />
</g>
</svg>
