<?xml version="1.0" encoding="UTF-8" standalone="no"?>
<!-- Generator: Adobe Illustrator 22.1.0, SVG Export Plug-In . SVG Version: 6.00 Build 0)  -->

<svg
   version="1.1"
   id="disk"
   x="0px"
   y="0px"
   viewBox="0 0 50 50"
   enable-background="new 0 0 50 50"
   xml:space="preserve"
   sodipodi:docname="plugin-diskio.svg"
   inkscape:version="1.1 (c68e22c387, 2021-05-23)"
   xmlns:inkscape="http://www.inkscape.org/namespaces/inkscape"
   xmlns:sodipodi="http://sodipodi.sourceforge.net/DTD/sodipodi-0.dtd"
   xmlns="http://www.w3.org/2000/svg"
   xmlns:svg="http://www.w3.org/2000/svg"><defs
   id="defs17" /><sodipodi:namedview
   id="namedview15"
   pagecolor="#ffffff"
   bordercolor="#666666"
   borderopacity="1.0"
   inkscape:pageshadow="2"
   inkscape:pageopacity="0.0"
   inkscape:pagecheckerboard="0"
   showgrid="false"
   inkscape:zoom="16.24"
   inkscape:cx="25.030788"
   inkscape:cy="24.907635"
   inkscape:window-width="1920"
   inkscape:window-height="1017"
   inkscape:window-x="-8"
   inkscape:window-y="-8"
   inkscape:window-maximized="1"
   inkscape:current-layer="disk" />
<path
   fill="#333333"
   d="M34.1,21.8c-1.7,0-3.1,1.4-3.1,3.1c0,1.7,1.4,3.1,3.1,3.1c1.7,0,3.1-1.4,3.1-3.1  C37.2,23.2,35.8,21.8,34.1,21.8z"
   id="path2"
   style="fill:#ffffff" />
<polygon
   fill="#333333"
   points="48.3,11.7 36.7,11.7 36.7,16.7 28,8.5 36.7,0 36.7,5 48.3,5 "
   id="polygon4"
   style="fill:#ffffff" />
<g
   id="g10"
   style="fill:#ffffff">
	<path
   fill="#333333"
   d="M48.1,24.7c0,3.6-1.3,6.8-3.5,9.3l5.5,5.2V13.3h-7.8C45.8,15.9,48.1,20,48.1,24.7z"
   id="path6"
   style="fill:#ffffff" />
	<path
   fill="#333333"
   d="M23.3,40.4c0-1,0.8-1.8,1.7-1.8v-1.9h2.1c-3.3-2-5.8-5.2-6.6-9.1c4.2,2.3,8.1,3.7,8.8,2.7   c1-1.3-3.4-6.2-8.2-10.5c1.3-3.3,3.7-6,6.9-7.6L26.7,11c-0.3,0.6-0.9,1-1.6,1c-1,0-1.9-0.8-1.9-1.9c0-0.7,0.4-1.2,0.9-1.6l-2-1.9H0   v36.7h25v-1C24,42.2,23.3,41.4,23.3,40.4z M6.4,10H20c0,0,0,2.6,0,4.9c-13.3-1.5-9.3,8.5-9.3,8.5H5c0,0,0-10.2,0-11.1   C6.1,12,6.6,11.2,6.4,10z M3.6,7.7c1,0,1.9,0.8,1.9,1.9c0,1-0.8,1.9-1.9,1.9s-1.9-0.8-1.9-1.9C1.7,8.5,2.5,7.7,3.6,7.7z M3.6,42.3   c-1,0-1.9-0.8-1.9-1.9c0-1,0.8-1.9,1.9-1.9s1.9,0.8,1.9,1.9C5.4,41.5,4.6,42.3,3.6,42.3z M13.3,36.7h-5v-10h5V36.7z M13.4,22   C13.3,22,13.3,21.9,13.4,22c-0.1-0.1-0.1-0.1-0.1-0.1c-0.6-0.5-1-1.3-1-2.2c0-1.6,1.3-2.9,2.9-2.9c0.4,0,0.8,0.1,1.2,0.2   c0.1,0,0.2,0.1,0.4,0.2c0,0,0,0,0,0c0.2,0.1,0.4,0.3,0.5,0.4C21.8,21.3,29,28,28.1,29.2c-0.9,1.2-9.9-3.6-14.5-7.1   C13.5,22.1,13.5,22,13.4,22z"
   id="path8"
   style="fill:#ffffff" />
</g>
<polygon
   fill="#333333"
   points="28.3,38.3 40,38.3 40,33.3 48.7,41.5 40,50 40,45 28.3,45 "
   id="polygon12"
   style="fill:#ffffff" />
<path
   style="fill:#ffffff;stroke-width:0.0615764"
   d="M 0,24.938424 V 6.58867 l 11.037562,8.169e-4 11.037561,8.17e-4 0.985222,0.9449532 0.985222,0.9449533 -0.266114,0.2891696 c -0.602693,0.6549099 -0.740048,1.452116 -0.375788,2.181064 0.42049,0.841476 1.339825,1.2362 2.249794,0.965968 0.326414,-0.09693 0.772801,-0.437006 0.944734,-0.719727 l 0.104413,-0.171693 0.611135,0.560426 c 0.336125,0.308234 0.618394,0.578758 0.627265,0.601163 0.0089,0.02241 -0.14353,0.119027 -0.33867,0.214715 -1.37088,0.672218 -3.168125,2.167836 -4.299311,3.577768 -0.815161,1.016031 -1.808112,2.704312 -2.124681,3.612522 l -0.07871,0.225823 0.363999,0.328364 c 0.99074,0.893748 2.326999,2.183218 3.370223,3.252217 3.487963,3.574137 5.129414,6.131629 4.435529,6.910854 -0.658914,0.739953 -3.258263,0.05099 -7.153432,-1.896047 l -1.621736,-0.810637 0.04039,0.215311 c 0.02221,0.118421 0.108638,0.454272 0.19205,0.746334 0.875636,3.065996 2.866851,5.765303 5.669188,7.685194 l 0.657575,0.450508 H 26.026709 25 v 0.954434 0.954433 l -0.200123,0.0014 c -0.471617,0.0032 -1.067413,0.455448 -1.342937,1.019405 -0.12061,0.246872 -0.147268,0.394566 -0.143628,0.795745 0.0049,0.534604 0.07782,0.757428 0.387597,1.183597 0.213321,0.293471 0.713777,0.606419 1.064531,0.665679 L 25,42.313781 v 0.487198 0.487198 H 12.5 0 Z m 4.2066541,17.2665 C 4.558098,42.085175 5.0710019,41.636256 5.2475536,41.293877 5.7766047,40.267911 5.4400581,39.180634 4.4334975,38.663914 4.2100436,38.549204 4.0550845,38.521121 3.6330049,38.518839 c -0.4515458,-0.0024 -0.5714273,0.02076 -0.8732514,0.168974 -0.8570023,0.420851 -1.2687926,1.439076 -0.9542518,2.359557 0.3255567,0.952719 1.4340201,1.487089 2.4011524,1.157554 z M 13.300493,31.681034 V 26.662562 H 10.80665 8.3128079 v 5.018472 5.018473 h 2.4938421 2.493843 z m 14.773856,-2.471358 c 0.161621,-0.205469 0.158844,-0.339736 -0.01581,-0.764257 -0.667714,-1.622961 -4.655811,-5.70321 -10.016666,-10.248117 -1.237107,-1.048812 -1.402946,-1.156976 -1.983899,-1.293945 -1.489508,-0.351174 -2.836717,0.254298 -3.485227,1.566356 -0.224799,0.454809 -0.226687,0.465066 -0.226687,1.231527 0,0.717426 0.01235,0.799274 0.172077,1.140392 0.260648,0.556652 0.618549,0.987835 1.076847,1.297339 0.227501,0.153639 0.877537,0.603911 1.444525,1.000605 3.67365,2.570274 8.825448,5.312002 11.376748,6.054574 0.402176,0.117056 0.732705,0.171434 1.057723,0.174016 0.439517,0.0035 0.481719,-0.0076 0.60037,-0.15849 z M 10.52186,22.776644 c -0.27122,-0.966122 -0.382802,-1.864493 -0.343345,-2.764329 0.123828,-2.823951 1.751796,-4.49364 4.93848,-5.06504 0.616909,-0.110617 0.982931,-0.132962 2.216749,-0.135328 0.812808,-0.0016 1.747999,0.01851 2.078202,0.04459 l 0.600369,0.04743 v -2.4643 -2.4642975 H 13.215473 6.4186305 l -0.026735,0.5695815 c -0.019909,0.424152 -0.060547,0.63471 -0.1591619,0.824664 -0.1710868,0.32955 -0.5791537,0.676481 -0.9510554,0.808568 l -0.2939939,0.104418 v 5.558207 5.558207 H 7.8421318 10.696578 Z M 4.171993,11.421223 C 5.045676,11.161767 5.6475137,10.179767 5.4786268,9.28923 5.2985668,8.3397775 4.5280036,7.6970443 3.5697792,7.6970443 c -0.7432909,0 -1.348138,0.3713425 -1.6701059,1.0253523 -0.1715833,0.3485349 -0.1980364,0.465987 -0.1968444,0.873991 0.00182,0.6237164 0.1702421,1.0165474 0.6069434,1.4156684 0.5149384,0.470624 1.170348,0.614631 1.8622207,0.409167 z"
   id="path871" /><path
   style="fill:#ffffff;stroke-width:0.0615764"
   d="m 33.128079,27.814985 c -1.542678,-0.529973 -2.408404,-2.134668 -1.999205,-3.705689 0.299376,-1.149385 1.323866,-2.063628 2.522604,-2.251143 2.245886,-0.351317 4.097855,1.878206 3.354606,4.038498 -0.325181,0.945154 -1.153544,1.715814 -2.123079,1.975187 -0.48767,0.130462 -1.28485,0.104637 -1.754926,-0.05685 z"
   id="path910" /><path
   style="fill:#ffffff;stroke-width:0.0615764"
   d="m 32.373768,12.603595 c -2.362222,-2.2279 -4.29495,-4.0751461 -4.29495,-4.1049909 0,-0.029844 1.932728,-1.9428966 4.29495,-4.2512274 l 4.294951,-4.1969648 0.01609,2.4686364 0.01609,2.4686364 h 5.787478 5.787479 v 3.3559114 3.3559109 h -5.787479 -5.787478 l -0.01609,2.477408 -0.01609,2.477407 z"
   id="path949" /><path
   style="fill:#ffffff;stroke-width:0.0615764"
   d="m 47.536946,36.762382 c -1.371613,-1.294726 -2.586755,-2.444531 -2.700315,-2.555123 l -0.206473,-0.201075 0.430308,-0.546811 c 1.673433,-2.126505 2.668518,-4.543462 2.972912,-7.22089 0.10712,-0.942219 0.04446,-2.986436 -0.120065,-3.917054 -0.393768,-2.227293 -1.260372,-4.227421 -2.630304,-6.070764 -0.549905,-0.739937 -1.725147,-1.963694 -2.429147,-2.529423 l -0.485272,-0.389961 3.825498,-0.01586 c 2.104024,-0.0087 3.835011,-0.0064 3.846638,0.0053 0.01163,0.01163 0.01415,5.820425 0.0056,12.908439 l -0.01554,12.887298 z"
   id="path988" /><path
   style="fill:#ffffff;stroke-width:0.0615764"
   d="m 40.024631,47.482722 v -2.470407 h -5.849754 -5.849754 v -3.355911 -3.355911 h 5.849055 5.849055 l 0.01609,-2.464173 0.01609,-2.464172 4.278582,4.031446 c 2.35322,2.217295 4.286205,4.054314 4.295522,4.082265 0.01459,0.04378 -1.403669,1.441129 -7.481124,7.370824 l -1.123768,1.096447 z"
   id="path1027" /></svg>
