<?xml version="1.0" encoding="UTF-8" standalone="no"?>
<svg
   width="16"
   height="16"
   viewBox="0 0 16 16"
   fill="none"
   version="1.1"
   id="svg4"
   sodipodi:docname="hardware.svg"
   inkscape:version="1.3 (0e150ed6c4, 2023-07-21)"
   xmlns:inkscape="http://www.inkscape.org/namespaces/inkscape"
   xmlns:sodipodi="http://sodipodi.sourceforge.net/DTD/sodipodi-0.dtd"
   xmlns="http://www.w3.org/2000/svg"
   xmlns:svg="http://www.w3.org/2000/svg">
  <defs
     id="defs4" />
  <sodipodi:namedview
     id="namedview4"
     pagecolor="#ffffff"
     bordercolor="#000000"
     borderopacity="0.25"
     inkscape:showpageshadow="2"
     inkscape:pageopacity="0.0"
     inkscape:pagecheckerboard="0"
     inkscape:deskcolor="#d1d1d1"
     inkscape:zoom="49.1875"
     inkscape:cx="7.9898348"
     inkscape:cy="8"
     inkscape:window-width="1920"
     inkscape:window-height="1001"
     inkscape:window-x="-9"
     inkscape:window-y="-9"
     inkscape:window-maximized="1"
     inkscape:current-layer="svg4" />
  <path
     d="M9.11956 15.3143H10.5595V16H3.80762V15.3143H5.2476C5.45453 15.0404 5.60757 14.7151 5.6956 14.3619C5.6956 14.3619 5.79159 13.981 5.95159 13.981H8.38357C8.54356 13.981 8.63956 14.3619 8.63956 14.3619C8.73521 14.7195 8.89956 15.0456 9.11956 15.3143Z"
     fill="#333333"
     id="path1" />
  <path
     d="M12.7681 4.58049e-05C12.1366 0.00756402 11.5211 0.237362 10.9991 0.660502C10.4771 1.08364 10.0719 1.6812 9.8346 2.37793C9.5973 3.07465 9.53847 3.83939 9.66554 4.57584C9.7926 5.31229 10.0999 5.98751 10.5486 6.51648C10.9974 7.04544 11.5676 7.4045 12.1875 7.54843C12.8073 7.69236 13.4491 7.61473 14.0319 7.32531C14.6148 7.03589 15.1127 6.54763 15.4629 5.92201C15.8131 5.29639 16 4.56138 16 3.80956C15.9957 2.79419 15.6528 1.82244 15.0467 1.10804C14.4406 0.393632 13.621 -0.00491734 12.7681 4.58049e-05ZM14.784 2.89528L12.6721 5.37147C12.6356 5.41926 12.5911 5.45749 12.5415 5.48373C12.4919 5.50996 12.4383 5.52362 12.3841 5.52385C12.3294 5.52726 12.2748 5.51524 12.2247 5.48876C12.1747 5.46228 12.1306 5.42209 12.0961 5.37147L10.8481 3.88575C10.8101 3.84085 10.7799 3.78744 10.7593 3.7286C10.7387 3.66975 10.7282 3.60664 10.7282 3.5429C10.7282 3.47916 10.7387 3.41604 10.7593 3.3572C10.7799 3.29835 10.8101 3.24494 10.8481 3.20004C10.9305 3.10809 11.0392 3.05693 11.1521 3.05693C11.265 3.05693 11.3737 3.10809 11.4561 3.20004L12.4161 4.3429L14.208 2.20957C14.2904 2.11762 14.3991 2.06645 14.512 2.06645C14.625 2.06645 14.7337 2.11762 14.816 2.20957C14.881 2.30926 14.9136 2.43354 14.9077 2.55954C14.9018 2.68554 14.8579 2.80477 14.784 2.89528Z"
     fill="#333333"
     id="path2" />
  <path
     d="M7.84066 8.34293L8.19266 7.92389L8.35265 8.11436C8.41009 8.05883 8.47743 8.01966 8.54953 7.99985C8.62163 7.98005 8.69658 7.98012 8.76865 8.00008L9.79264 6.78103C9.72895 6.70162 9.67508 6.61184 9.63264 6.51436L8.80065 7.50484L8.70465 7.39055L9.56864 6.36198C9.49248 6.2307 9.42812 6.09025 9.37664 5.94294L8.44865 7.0477L8.35265 6.93341L9.31264 5.79056C9.28064 5.67627 9.21664 5.56198 9.18464 5.4477L7.90466 6.97151C7.90714 7.13131 7.87401 7.28904 7.80866 7.42865L7.96866 7.61912L8.00066 7.65722L7.64866 8.07627L6.49667 6.70484C6.55728 6.42453 6.55677 6.13044 6.49517 5.85044C6.43357 5.57043 6.31293 5.3138 6.14468 5.10484C5.97131 4.90062 5.75581 4.75437 5.51988 4.68081C5.28394 4.60725 5.03589 4.60897 4.80069 4.6858L5.56869 5.60008L5.37669 6.51436L4.6087 6.74294L3.84071 5.82865C3.77678 6.11259 3.77913 6.41191 3.84752 6.69438C3.9159 6.97684 4.04773 7.23174 4.22879 7.43162C4.40985 7.63149 4.63329 7.76877 4.87504 7.82867C5.11678 7.88856 5.36768 7.8688 5.60069 7.77151L6.72067 9.10484L5.66468 10.362L5.60069 10.2858L5.31269 10.5525L4.80069 11.5048L4.92869 11.6572L5.72868 11.0477L5.98468 10.7048L5.85668 10.6667L6.91267 9.4096L8.73665 11.581C8.79442 11.6533 8.86392 11.7108 8.94093 11.7501C9.01794 11.7894 9.10086 11.8097 9.18464 11.8097C9.26843 11.8097 9.35135 11.7894 9.42836 11.7501C9.50537 11.7108 9.57487 11.6533 9.63264 11.581C9.69332 11.5122 9.74164 11.4295 9.77465 11.3378C9.80766 11.2461 9.82468 11.1474 9.82468 11.0477C9.82468 10.9479 9.80766 10.8492 9.77465 10.7576C9.74164 10.6659 9.69332 10.5831 9.63264 10.5144L7.84066 8.34293ZM9.28064 11.4286C9.23001 11.4286 9.18052 11.4108 9.13842 11.3773C9.09632 11.3438 9.06351 11.2962 9.04413 11.2405C9.02476 11.1848 9.01969 11.1235 9.02956 11.0644C9.03944 11.0053 9.06382 10.951 9.09963 10.9084C9.13543 10.8658 9.18104 10.8367 9.2307 10.825C9.28036 10.8132 9.33183 10.8193 9.37861 10.8423C9.42539 10.8654 9.46537 10.9044 9.4935 10.9546C9.52163 11.0047 9.53664 11.0636 9.53664 11.1239C9.50464 11.3144 9.40864 11.4286 9.28064 11.4286Z"
     fill="#333333"
     id="path3" />
  <path
     d="M12.8639 8.41918V12.4192H0.799991V3.65728L8.7359 3.61918C8.7679 3.08585 8.9919 2.05728 9.1519 2.05728H0.92799C0.319996 2.05728 0 2.97157 0 3.65728V12.9525C0 13.6763 0.319996 14.2858 0.92799 14.2858H12.5119C12.6642 14.3044 12.8182 14.283 12.9629 14.2232C13.1075 14.1633 13.2394 14.0664 13.3493 13.9393C13.4591 13.8121 13.5442 13.6579 13.5985 13.4874C13.6529 13.3169 13.6752 13.1344 13.6638 12.9525V8.2287C13.6638 8.34299 13.6638 8.41918 12.8639 8.41918Z"
     fill="#333333"
     id="path4" />
  <path
     style="fill:#ffffff;stroke-width:0.0203304"
     d="M 12.514807,7.6129435 C 10.998997,7.4411466 9.8100286,6.0673321 9.6151569,4.2624905 9.5843799,3.9774439 9.6005045,3.3707444 9.6460428,3.1003812 9.8590506,1.8357439 10.572741,0.78496441 11.553655,0.29177082 c 0.191808,-0.0964394 0.50805,-0.20429907 0.746218,-0.25451023 0.256086,-0.05398868 0.753754,-0.04893963 1.031769,0.01046773 1.088885,0.23267719 1.980761,1.07205298 2.416314,2.27407808 0.272228,0.7512862 0.328062,1.6574013 0.151953,2.4659954 -0.104744,0.4809266 -0.37828,1.108294 -0.646676,1.4831792 -0.429106,0.5993607 -1.042564,1.0554336 -1.665996,1.2385783 -0.330004,0.096945 -0.761891,0.1385796 -1.07243,0.1033842 z M 12.51556,5.480864 C 12.58382,5.449865 12.799492,5.2081891 13.694722,4.1595228 14.297313,3.4536512 14.811649,2.8345055 14.83769,2.7836438 14.968439,2.5282694 14.87567,2.1898482 14.65179,2.10544 14.56592,2.073065 14.424951,2.079413 14.340924,2.119441 c -0.05573,0.02655 -0.306451,0.3115869 -0.988008,1.1232529 -0.502326,0.5982211 -0.921102,1.0904624 -0.930611,1.0938698 -0.0095,0.00341 -0.231967,-0.2487275 -0.49435,-0.5602995 -0.262382,-0.3115721 -0.505891,-0.5907554 -0.541131,-0.6204074 -0.0562,-0.047287 -0.175647,-0.09591 -0.235617,-0.09591 -0.125307,0 -0.288502,0.1137657 -0.361458,0.2519781 -0.06513,0.123387 -0.06253,0.33625 0.0057,0.4646048 0.07786,0.1465171 1.36869,1.6703128 1.448113,1.7094614 0.08723,0.042994 0.16947,0.041444 0.272021,-0.00513 z"
     id="path5" />
  <path
     style="fill:#ffffff;stroke-width:0.0203304"
     d="m 3.8017789,15.654384 v -0.355782 h 0.7216006 0.7216006 l 0.063081,-0.0864 c 0.1346655,-0.184455 0.384442,-0.75693 0.384442,-0.881122 0,-0.0245 -0.3462341,-0.02868 -2.3837357,-0.02878 -1.4143826,-7e-5 -2.43185837,-0.008 -2.50207409,-0.0195 C 0.44278156,14.223198 0.18256411,13.944081 0.04787667,13.468869 0.01202454,13.342374 0.01018939,13.12457 0.00496841,8.3763322 -9.8217433e-4,2.9645589 -0.0072143,3.2793525 0.11349852,2.8943189 0.23131629,2.5185196 0.44142583,2.2209678 0.66729204,2.1100506 l 0.11542715,-0.056683 4.18252241,-0.00532 4.1825226,-0.00532 -0.049485,0.07292 C 8.9726567,2.3007602 8.81674,2.9290009 8.7525418,3.5087362 L 8.739966,3.6223009 7.2009868,3.6357863 c -0.8464386,0.00742 -2.1290681,0.013501 -2.8502879,0.01352 -0.7212199,1.93e-5 -1.8121983,0.0061 -2.4243965,0.013507 L 0.81321474,3.6762861 V 8.043988 12.41169 H 6.8310038 12.848793 V 10.412102 8.412514 l 0.299873,-0.011942 c 0.328471,-0.013081 0.431387,-0.034154 0.493758,-0.1011017 l 0.04114,-0.044162 -0.0061,2.5102117 c -0.0068,2.816422 0.006,2.584612 -0.161301,2.926984 -0.09711,0.198783 -0.284637,0.401611 -0.455451,0.492615 -0.226757,0.120808 -0.155465,0.117296 -2.381403,0.117296 -1.1856949,0 -2.0389304,0.0076 -2.0389304,0.01819 0,0.01 0.019252,0.08052 0.042782,0.1567 0.062812,0.203361 0.1857285,0.458092 0.3142518,0.65125 l 0.1131468,0.170049 h 0.7306025 0.7306023 v 0.355782 0.35578 H 7.1867853 3.8017789 Z"
     id="path6" />
  <path
     style="fill:#ffffff;stroke-width:0.0203304"
     d="M 9.0351356,11.793393 C 8.9894664,11.779096 8.9218783,11.749974 8.8849395,11.72868 8.8462922,11.7064 8.4164851,11.212723 7.8725875,10.565891 7.3527327,9.9476524 6.9182361,9.4448742 6.9070392,9.4486067 6.8958424,9.4523389 6.6598504,9.7248797 6.3826125,10.054253 l -0.5040692,0.59886 0.059835,0.02563 0.059835,0.02562 -0.1327905,0.176048 c -0.1158816,0.153631 -0.1834679,0.214723 -0.5307802,0.479782 l -0.3979899,0.303734 -0.069343,-0.06721 c -0.038139,-0.03697 -0.069343,-0.07615 -0.069343,-0.08709 0,-0.01093 0.1103291,-0.226419 0.2451757,-0.478858 0.2291725,-0.429021 0.2552118,-0.468659 0.3989324,-0.607272 0.1429116,-0.137833 0.1562718,-0.146016 0.1894173,-0.11602 0.040131,0.03632 0.031022,0.04611 0.6806196,-0.7318754 C 6.4895034,9.3631512 6.6513893,9.1704268 6.6718585,9.1473271 6.7086278,9.1058324 6.7024106,9.097391 6.1547214,8.4451936 L 5.6003678,7.7850598 5.4787099,7.8237402 C 5.3144168,7.8759762 5.014436,7.8786488 4.8487929,7.8293522 4.6252124,7.7628129 4.4547134,7.6578602 4.2682421,7.4719874 4.119456,7.323679 4.0790794,7.2677284 3.9890702,7.0851334 3.8525725,6.8082307 3.7964409,6.5775152 3.7936935,6.2820839 3.791437,6.0394468 3.8151495,5.8186128 3.8423898,5.8285748 c 0.00939,0.00343 0.1837551,0.2052244 0.3874871,0.4484265 0.2037319,0.243202 0.3842579,0.4421855 0.4011688,0.4421855 0.030008,0 0.719197,-0.2013246 0.7329341,-0.2141032 0.0098,-0.00912 0.1858637,-0.8467569 0.1857519,-0.8837367 C 5.549681,5.6045743 5.3805132,5.3897998 5.1738033,5.1440702 4.9670933,4.8983406 4.797967,4.6914586 4.797967,4.6843323 c 0,-0.032545 0.2558228,-0.063992 0.4419554,-0.054328 0.5916263,0.030719 1.0695717,0.4733077 1.2461826,1.1539956 0.053862,0.2075945 0.074629,0.5803583 0.043441,0.7797584 L 6.507748,6.7031205 7.0790818,7.3830233 C 7.3933153,7.75697 7.6565811,8.0556292 7.664117,8.0467109 7.671657,8.0377909 7.747889,7.9467589 7.8335306,7.8444151 L 7.9892424,7.6583351 7.8967787,7.5460202 7.8043147,7.4337055 7.8462489,7.2979387 c 0.023064,-0.074672 0.042132,-0.1782593 0.042374,-0.2301947 4.388e-4,-0.09404 0.00305,-0.097523 0.635324,-0.848961 0.3491861,-0.4149933 0.6424226,-0.7580683 0.6516369,-0.7623888 0.016969,-0.00796 0.1355123,0.2748128 0.13565,0.3235759 4.1e-5,0.014562 -0.2103447,0.2771076 -0.4675239,0.5834352 C 8.5865311,6.669733 8.3761118,6.9285737 8.3761118,6.938607 c 0,0.010033 0.01743,0.034016 0.038732,0.053295 0.037423,0.033867 0.054077,0.016786 0.4924934,-0.5051082 0.2495685,-0.2970883 0.4602391,-0.5401606 0.4681568,-0.5401606 0.00792,0 0.020738,0.020585 0.02849,0.045743 0.00775,0.025159 0.04949,0.118397 0.092752,0.2071958 0.066045,0.135562 0.0746,0.1671239 0.05335,0.1968194 -0.01392,0.019452 -0.2071398,0.2512926 -0.4293784,0.5152019 -0.3937468,0.4675761 -0.4031451,0.4808565 -0.3678782,0.519826 0.019905,0.021995 0.042374,0.039991 0.049929,0.039991 0.00756,0 0.1943634,-0.2149936 0.4151283,-0.4777636 C 9.5816228,6.5607025 9.656925,6.4815785 9.656925,6.5323269 c 0,0.00904 0.03193,0.069469 0.070956,0.1342778 0.068606,0.1139318 0.069784,0.1193019 0.035578,0.1621494 -0.019458,0.024373 -0.2484857,0.2978744 -0.508951,0.6077804 L 8.7809346,8 H 8.6690003 C 8.5587332,8 8.4638853,8.033456 8.3898326,8.098471 8.3551206,8.128947 8.3481276,8.12551 8.2814121,8.045193 8.2421881,7.997973 8.2023281,7.959339 8.1928321,7.959339 c -0.0095,0 -0.08763,0.082938 -0.1736335,0.1843072 -0.1232065,0.145219 -0.152603,0.1919686 -0.13861,0.2204334 0.00977,0.01987 0.4203007,0.5232624 0.9122956,1.1186507 0.4919949,0.5953887 0.9190142,1.1297387 0.9489319,1.1874447 0.1667389,0.321612 0.092689,0.739842 -0.1741761,0.983742 -0.1648818,0.150692 -0.3455372,0.198011 -0.5325044,0.139476 z M 9.4110662,11.36315 c 0.1342325,-0.112949 0.143764,-0.349631 0.018898,-0.46926 -0.1301729,-0.124713 -0.3281415,-0.05026 -0.3824894,0.143855 -0.071846,0.256608 0.1787808,0.480913 0.3635914,0.325405 z"
     id="path7" />
</svg>
