<?xml version="1.0" encoding="UTF-8" standalone="no"?>
<svg
   width="16"
   height="16"
   viewBox="0 0 16 16"
   fill="none"
   version="1.1"
   id="svg1"
   sodipodi:docname="Heartbeathearbeat.svg"
   inkscape:version="1.3 (0e150ed6c4, 2023-07-21)"
   xmlns:inkscape="http://www.inkscape.org/namespaces/inkscape"
   xmlns:sodipodi="http://sodipodi.sourceforge.net/DTD/sodipodi-0.dtd"
   xmlns="http://www.w3.org/2000/svg"
   xmlns:svg="http://www.w3.org/2000/svg">
  <defs
     id="defs1" />
  <sodipodi:namedview
     id="namedview1"
     pagecolor="#ffffff"
     bordercolor="#000000"
     borderopacity="0.25"
     inkscape:showpageshadow="2"
     inkscape:pageopacity="0.0"
     inkscape:pagecheckerboard="0"
     inkscape:deskcolor="#d1d1d1"
     inkscape:zoom="49.1875"
     inkscape:cx="7.9898348"
     inkscape:cy="8"
     inkscape:window-width="1920"
     inkscape:window-height="1001"
     inkscape:window-x="-9"
     inkscape:window-y="-9"
     inkscape:window-maximized="1"
     inkscape:current-layer="svg1" />
  <path
     d="M12.448 0C9.76 0 8.16 2.8 8.032 3.09091C7.872 2.8 6.272 0 3.584 0C0.736 0 0 2.98182 0 4.47273C0 5.81818 0.608 7.34546 1.504 8.61818H2.528L4.16 6.29091L5.056 9.01818L7.232 3.96364L8.224 9.92727L9.024 8.18182H11.712V9.09091H9.664L8 13.8182L7.072 6.8L5.088 11.2L3.904 8.25455L2.848 9.89091H2.08C4.32 13.0909 7.68 15.7455 7.968 16C8.576 15.6 16 9.38182 16 4.65455C16 3.16364 15.296 0 12.448 0Z"
     fill="#333333"
     id="path1" />
  <path
     style="fill:#ffffff;stroke-width:0.0203304"
     d="M 7.7153748,15.802037 C 6.3845934,14.672628 5.6566333,13.998402 4.6474936,12.96061 3.680773,11.966442 2.8134618,10.940923 2.1672602,10.027954 L 2.0701284,9.8907243 H 2.454118 2.8381074 L 3.3695089,9.0663264 C 3.8049614,8.3907802 3.9043826,8.2485361 3.9201403,8.2785246 c 0.010576,0.020128 0.2727144,0.6678541 0.5825287,1.4393915 0.3098143,0.7715379 0.5693263,1.4134729 0.5766934,1.4265229 0.00737,0.01305 0.4565817,-0.959282 0.9982545,-2.1607366 0.5497953,-1.2194719 0.9908346,-2.172957 0.9983859,-2.1584159 0.00744,0.014326 0.2183696,1.5785891 0.4687334,3.4761395 0.2503638,1.897551 0.4609518,3.443675 0.4679737,3.435832 0.00702,-0.0078 0.3754166,-1.045409 0.8186548,-2.305702 C 9.2746029,10.171262 9.6426576,9.1260267 9.6492637,9.108811 9.6598587,9.081202 9.7821418,9.07751 10.685784,9.07751 h 1.024508 V 8.6302414 8.1829733 H 10.371836 9.0333786 L 8.6408854,9.0419314 C 8.4250141,9.5143583 8.2415057,9.9086093 8.2330891,9.9180446 8.2246725,9.9274802 8.2072583,9.8725882 8.1943911,9.7960624 8.1815238,9.7195369 7.9586972,8.3832685 7.6992209,6.8265775 L 7.227446,3.9962299 6.1508129,6.4976087 C 5.5586645,7.873367 5.0678347,9.0029091 5.0600797,9.0077018 5.0523247,9.0124946 4.8981788,8.5658673 4.7175331,8.0151965 4.5368876,7.4645259 4.3368736,6.8558036 4.2730576,6.6624805 L 4.1570285,6.3109839 3.3441917,7.4706127 2.5313551,8.6302414 2.0128185,8.6298183 1.4942821,8.6293955 1.4037937,8.4925884 C 0.69209484,7.4165896 0.24638933,6.3538464 0.05893388,5.2858958 -0.02719111,4.795234 -0.01666968,4.040739 0.084166,3.476493 0.41610281,1.619075 1.4124057,0.37413652 2.806743,0.07447465 4.4661965,-0.28216429 6.1735972,0.51975677 7.5088703,2.2829398 c 0.1721169,0.2272748 0.4731188,0.6793726 0.4920673,0.7390741 0.018576,0.058527 0.037923,0.045675 0.08861,-0.058863 0.067528,-0.13927 0.3590174,-0.5749159 0.5417888,-0.8097306 1.2776063,-1.64139901 2.9430096,-2.41211627 4.5182526,-2.0909629 1.223401,0.24942115 2.146133,1.2512399 2.598242,2.8209345 0.275614,0.9569171 0.326358,1.9242627 0.147888,2.8192765 -0.366147,1.8362055 -1.71194,4.0698675 -3.951178,6.5579146 -0.910837,1.012044 -2.1203133,2.195966 -3.1361291,3.069868 -0.3277054,0.281924 -0.8184907,0.680034 -0.8372768,0.679174 -0.00649,-2.97e-4 -0.1215798,-0.09371 -0.2557603,-0.207588 z"
     id="path2" />
</svg>
