<?xml version="1.0" encoding="UTF-8" standalone="no"?>
<svg
   width="104.02932mm"
   height="34.158607mm"
   viewBox="0 0 104.02932 34.158607"
   version="1.1"
   id="svg108"
   inkscape:version="1.3 (0e150ed6c4, 2023-07-21)"
   sodipodi:docname="backupDeployingAll.svg"
   xmlns:inkscape="http://www.inkscape.org/namespaces/inkscape"
   xmlns:sodipodi="http://sodipodi.sourceforge.net/DTD/sodipodi-0.dtd"
   xmlns="http://www.w3.org/2000/svg"
   xmlns:svg="http://www.w3.org/2000/svg"
   xmlns:rdf="http://www.w3.org/1999/02/22-rdf-syntax-ns#"
   xmlns:cc="http://creativecommons.org/ns#"
   xmlns:dc="http://purl.org/dc/elements/1.1/">
  <defs
     id="defs102" />
  <sodipodi:namedview
     id="base"
     pagecolor="#ffffff"
     bordercolor="#666666"
     borderopacity="1.0"
     inkscape:pageopacity="0.0"
     inkscape:pageshadow="2"
     inkscape:zoom="0.9899495"
     inkscape:cx="512.14734"
     inkscape:cy="231.83001"
     inkscape:document-units="mm"
     inkscape:current-layer="layer1"
     inkscape:document-rotation="0"
     showgrid="false"
     inkscape:window-width="1920"
     inkscape:window-height="1001"
     inkscape:window-x="-9"
     inkscape:window-y="-9"
     inkscape:window-maximized="1"
     showguides="true"
     inkscape:showpageshadow="2"
     inkscape:pagecheckerboard="0"
     inkscape:deskcolor="#d1d1d1" />
  <metadata
     id="metadata105">
    <rdf:RDF>
      <cc:Work
         rdf:about="">
        <dc:format>image/svg+xml</dc:format>
        <dc:type
           rdf:resource="http://purl.org/dc/dcmitype/StillImage" />
      </cc:Work>
    </rdf:RDF>
  </metadata>
  <g
     inkscape:label="Calque 1"
     inkscape:groupmode="layer"
     id="layer1"
     transform="translate(-14.652002,-3.0583796)">
    <path
       style="fill:#1c7d00;fill-opacity:1;stroke:none;stroke-width:0.143305"
       d="m 17.780025,16.171975 c -2.140087,-1.02579 -3.486823,-4.405974 -3.043774,-7.6395881 0.301163,-2.1980482 1.201079,-3.921841 2.57008,-4.922999 l 0.660576,-0.483083 9.74848,-0.047658 c 9.499874,-0.046443 9.767962,-0.038645 10.512386,0.3057311 1.872908,0.8664284 3.076469,3.3335228 3.069962,6.2929004 -0.0065,2.9525816 -0.886635,5.0098076 -2.677706,6.2588136 l -0.685464,0.478012 -9.748915,0.03632 c -9.106387,0.03393 -9.792199,0.01558 -10.405625,-0.278449 z"
       id="path1055"
       inkscape:export-xdpi="48.004486"
       inkscape:export-ydpi="48.004486" />
    <path
       style="fill:#7a7976;fill-opacity:1;stroke:none;stroke-width:0.143745"
       d="m 17.800175,36.924055 c -2.138189,-1.033022 -3.483731,-4.437034 -3.041075,-7.693443 0.300896,-2.213543 1.200014,-3.949488 2.567802,-4.957705 l 0.65999,-0.486488 9.739837,-0.04799 c 9.491452,-0.04677 9.759302,-0.03892 10.503066,0.307886 1.871248,0.872537 3.073741,3.357023 3.067241,6.337263 -0.0065,2.973396 -0.88585,5.045124 -2.675332,6.302935 l -0.684856,0.481381 -9.740272,0.03658 c -9.098314,0.03417 -9.783519,0.01569 -10.396401,-0.280411 z"
       id="path1055-5"
       inkscape:export-xdpi="48.004486"
       inkscape:export-ydpi="48.004486" />
    <g
       id="g1071"
       style="fill:#ffffff"
       inkscape:export-xdpi="48.004486"
       inkscape:export-ydpi="48.004486"
       transform="matrix(1.7541936,0,0,1.6658083,-1.7780893,-2.3032199)">
      <text
         xml:space="preserve"
         style="font-size:6.35px;line-height:1.25;font-family:sans-serif;fill:#ffffff;stroke-width:0.264583"
         x="25.985863"
         y="9.5438995"
         id="text1063"><tspan
           sodipodi:role="line"
           id="tspan1061"
           x="25.985863"
           y="9.5438995"
           style="font-size:6.35px;fill:#ffffff;fill-opacity:1;stroke-width:0.264583">Déployés</tspan></text>
    </g>
    <text
       xml:space="preserve"
       style="font-size:10.8549px;line-height:1.25;font-family:sans-serif;fill:#ffffff;stroke-width:0.452286"
       x="42.679024"
       y="35.045128"
       id="text1075"
       inkscape:export-xdpi="48.004486"
       inkscape:export-ydpi="48.004486"
       transform="scale(1.0261864,0.97448183)"
       inkscape:export-filename="test\text1075.svg"><tspan
         id="tspan1073"
         x="42.679024"
         y="35.045128"
         style="font-size:10.8549px;fill:#ffffff;stroke-width:0.452286"
         sodipodi:role="line">Non déployés</tspan></text>
  </g>
</svg>
