<?xml version="1.0" encoding="UTF-8" standalone="no"?>
<!-- Generator: Adobe Illustrator 22.1.0, SVG Export Plug-In . SVG Version: 6.00 Build 0)  -->

<svg
   version="1.1"
   id="disk"
   x="0px"
   y="0px"
   viewBox="0 0 50 50"
   enable-background="new 0 0 50 50"
   xml:space="preserve"
   sodipodi:docname="memory.svg"
   inkscape:version="1.1 (c68e22c387, 2021-05-23)"
   xmlns:inkscape="http://www.inkscape.org/namespaces/inkscape"
   xmlns:sodipodi="http://sodipodi.sourceforge.net/DTD/sodipodi-0.dtd"
   xmlns="http://www.w3.org/2000/svg"
   xmlns:svg="http://www.w3.org/2000/svg"><defs
   id="defs11" /><sodipodi:namedview
   id="namedview9"
   pagecolor="#ffffff"
   bordercolor="#666666"
   borderopacity="1.0"
   inkscape:pageshadow="2"
   inkscape:pageopacity="0.0"
   inkscape:pagecheckerboard="0"
   showgrid="false"
   inkscape:zoom="16.24"
   inkscape:cx="25.030788"
   inkscape:cy="28.04803"
   inkscape:window-width="1920"
   inkscape:window-height="1017"
   inkscape:window-x="1912"
   inkscape:window-y="-8"
   inkscape:window-maximized="1"
   inkscape:current-layer="disk" />
<path
   fill="inherit"
   d="M50,10.1l-6.5-6.6c0,0,0,0-0.1,0.1c-0.4,0.4-1.1,0.4-1.5,0c-0.4-0.4-0.4-1.1,0-1.5c0,0,0,0,0.1-0.1L40,0  C39.9,0,39.8,0,39.8,0L0,39.6C0,39.7,0,39.8,0,39.9l1.9,1.9c0.4-0.4,1.1-0.4,1.5,0c0.4,0.4,0.4,1.1,0,1.5L10,50  c0.1,0.1,0.2,0.1,0.2,0l1.2-1.2l-1-1l0.5-0.5l1,1l0.2-0.2l-1-1l0.5-0.5l1,1l0.2-0.2l-1-1l0.5-0.5l1,1l0.2-0.2l-1-1l0.5-0.5l1,1  l0.2-0.2l-1-1l0.5-0.5l1,1l0.2-0.2l-1-1l0.5-0.5l1,1l0.2-0.2l-1-1l0.5-0.5l1,1l0.2-0.2l-1-1l0.5-0.5l1,1l0.2-0.2l-1-1l0.5-0.5l1,1  l1-1l-0.6-0.6c-0.3-0.3-0.3-0.7,0-1c0.3-0.3,0.7-0.3,1,0l0.6,0.6l1.2-1.2l-1-1l0.5-0.5l1,1l0.2-0.2l-1-1l0.5-0.5l1,1l0.2-0.2l-1-1  l0.5-0.5l1,1l0.2-0.2l-1-1l0.5-0.5l1,1l0.2-0.2l-1-1l0.5-0.5l1,1l0.2-0.2l-1-1l0.5-0.5l1,1l0.2-0.2l-1-1l0.5-0.5l1,1l0.2-0.2l-1-1  l0.5-0.5l1,1l0.2-0.2l-1-1l0.5-0.5l1,1l0.2-0.2l-1-1l0.5-0.5l1,1l0.2-0.2l-1-1l0.5-0.5l1,1l0.2-0.2l-1-1l0.5-0.5l1,1l1.2-1.2  l-0.6-0.6c-0.3-0.3-0.3-0.7,0-1c0.3-0.3,0.7-0.3,1,0l0.6,0.6l1-1l-1-1l0.5-0.5l1,1l0.2-0.2l-1-1l0.5-0.5l1,1l0.2-0.2l-1-1l0.5-0.5  l1,1l0.2-0.2l-1-1l0.5-0.5l1,1l0.2-0.2l-1-1l0.5-0.5l1,1l0.2-0.2l-1-1l0.5-0.5l1,1l0.2-0.2l-1-1l0.5-0.5l1,1l0.2-0.2l-1-1l0.5-0.5  l1,1l0.2-0.2l-1-1l0.5-0.5l1,1l0.2-0.2l-1-1l0.5-0.5l1,1l0.2-0.2l-1-1l0.5-0.5l1,1l0.2-0.2l-1-1l0.5-0.5l1,1l0.2-0.2l-1-1l0.5-0.5  l1,1l0.2-0.2l-1-1l0.5-0.5l1,1l0.2-0.2l-1-1l0.5-0.5l1,1l0.2-0.2l-1-1l0.5-0.5l1,1l0.2-0.2l-1-1l0.5-0.5l1,1l0.2-0.2l-1-1l0.5-0.5  l1,1l0.2-0.2l-1-1l0.5-0.5l1,1l0.2-0.2l-1-1l0.5-0.5l1,1l0.2-0.2l-1-1l0.5-0.5l1,1l1.8-1.8C50,10.3,50,10.2,50,10.1z M10.4,48.8  c-0.2,0.2-0.5,0.2-0.6,0c-0.2-0.2-0.2-0.5,0-0.6c0.2-0.2,0.5-0.2,0.6,0C10.6,48.4,10.6,48.6,10.4,48.8z M11.5,43.7l-6-6l2.8-2.8l6,6  L11.5,43.7z M15.6,39.5l-6-6l2.8-2.8l6,6L15.6,39.5z M19.7,35.4l-6-6l2.8-2.8l6,6L19.7,35.4z M23.7,31.5l-6-6l2.8-2.8l6,6L23.7,31.5  z M27.8,27.4l-6-6l2.8-2.8l6,6L27.8,27.4z M31.9,23.3l-6-6l2.8-2.8l6,6L31.9,23.3z M36.1,19.2l-6-6l2.8-2.8l6,6L36.1,19.2z   M40.2,15.2l-6-6L37,6.4l6,6L40.2,15.2z M48.9,10.5c-0.2,0.2-0.5,0.2-0.6,0c-0.2-0.2-0.2-0.5,0-0.6c0.2-0.2,0.5-0.2,0.6,0  C49.1,10,49.1,10.3,48.9,10.5z"
   id="path4"
   style="fill:#ffffff" /></svg>
