<?xml version="1.0" encoding="UTF-8" standalone="no"?>
<svg
   width="16"
   height="16"
   viewBox="0 0 16 16"
   fill="none"
   version="1.1"
   id="svg4"
   sodipodi:docname="exchangemicrosof exchange.svg"
   inkscape:version="1.3 (0e150ed6c4, 2023-07-21)"
   xmlns:inkscape="http://www.inkscape.org/namespaces/inkscape"
   xmlns:sodipodi="http://sodipodi.sourceforge.net/DTD/sodipodi-0.dtd"
   xmlns="http://www.w3.org/2000/svg"
   xmlns:svg="http://www.w3.org/2000/svg">
  <defs
     id="defs4" />
  <sodipodi:namedview
     id="namedview4"
     pagecolor="#ffffff"
     bordercolor="#000000"
     borderopacity="0.25"
     inkscape:showpageshadow="2"
     inkscape:pageopacity="0.0"
     inkscape:pagecheckerboard="0"
     inkscape:deskcolor="#d1d1d1"
     inkscape:zoom="49.1875"
     inkscape:cx="7.9898348"
     inkscape:cy="8"
     inkscape:window-width="1920"
     inkscape:window-height="1001"
     inkscape:window-x="-9"
     inkscape:window-y="-9"
     inkscape:window-maximized="1"
     inkscape:current-layer="svg4" />
  <path
     d="M15.9999 16H10.7295L8.60791 14.1613L9.63895 12.96L10.7497 14.0006H14.0821L14.0617 11.1472L9.10967 6.47102L9.36567 5.97406C9.36567 5.97406 12.6665 8.50558 15.9999 11.0502V16Z"
     fill="#333333"
     id="path1" />
  <path
     d="M15.9999 0V5.2656L14.1346 7.38624L12.9461 6.35616L13.9999 5.24544V1.91296L11.1199 1.93312L6.4319 6.88512L5.92822 6.63168C5.92822 6.63168 8.45238 3.33344 10.9973 0H15.9999Z"
     fill="#333333"
     id="path2" />
  <path
     d="M0 16V10.7824L1.83616 8.66174L3.04 9.69182L2 10.8025V14.135L4.85088 14.1149L9.52544 9.16286L10.0218 9.3923C10.0218 9.3923 7.4896 12.6665 4.94496 16H0Z"
     fill="#333333"
     id="path3" />
  <path
     d="M0 0H5.25888L7.37952 1.84608L6.34944 3.04416L5.23872 2H1.90624L1.9264 4.86048L6.88 9.54016L6.62976 10.0387C6.62976 10.0387 3.33344 7.50912 0 4.96448V0Z"
     fill="#333333"
     id="path4" />
  <path
     style="fill:#ffffff;stroke-width:0.0203304"
     d="M 0,13.389405 V 10.768644 L 0.91771021,9.7087355 C 1.8347858,8.64956 1.8354501,8.6488533 1.8783201,8.6869324 1.901915,8.7078904 2.1761059,8.9425209 2.4876332,9.2083335 l 0.5664135,0.4832957 -0.090139,0.094465 c -0.049576,0.051956 -0.283878,0.3016218 -0.5206701,0.5548138 l -0.4305313,0.460349 v 1.659092 1.659092 l 1.0114358,-5.4e-5 c 0.5562897,-2.9e-5 1.1968781,-0.0061 1.4235296,-0.01341 l 0.4120935,-0.01335 2.3285322,-2.4669 c 1.2806929,-1.356795 2.332861,-2.4668999 2.3381514,-2.4668999 0.018274,0 0.465981,0.2073353 0.4835522,0.223935 0.0097,0.00916 -0.4713339,0.6509559 -1.0689485,1.4262179 -1.1938578,1.548745 -2.364274,3.072947 -3.3502014,4.362876 L 4.9504447,16.00973 2.4752224,16.009948 0,16.010165 Z"
     id="path5" />
  <path
     style="fill:#ffffff;stroke-width:0.0203304"
     d="M 5.6213469,9.2794021 C 5.0846252,8.8665344 3.6006258,7.7304801 2.3235704,6.7548369 L 0.00165145,4.9809403 8.2572198e-4,2.4853875 0,-0.01016518 H 2.6311577 5.2623156 L 6.316037,0.90771328 C 6.8955838,1.4125464 7.3697586,1.8363181 7.3697586,1.8494282 c 0,0.030952 -0.9894667,1.1867519 -1.0175252,1.1885754 C 6.3404981,3.0387661 6.0843355,2.8065669 5.7829831,2.522005 L 5.2350699,2.0046201 3.5736398,2.0035806 1.9122097,2.0025413 1.9243823,3.4307497 c 0.0067,0.7855146 0.017871,1.4337891 0.024836,1.4406097 0.00696,0.00682 1.101354,1.0395121 2.4319766,2.2948698 C 5.711817,8.421587 6.821834,9.4690521 6.8478988,9.4939296 l 0.04739,0.045232 -0.1237862,0.2469377 C 6.7034208,9.9219149 6.6363517,10.032369 6.6224608,10.031554 6.6085699,10.030738 6.1580686,9.6922698 5.6213469,9.2794021 Z"
     id="path6" />
  <path
     style="fill:#ffffff;stroke-width:0.0203304"
     d="M 13.534943,6.8803216 C 13.213469,6.600973 12.950445,6.3650368 12.950445,6.3560185 c 0,-0.00902 0.233223,-0.2626336 0.518273,-0.5635899 l 0.518273,-0.5471935 1.51e-4,-1.6653254 1.52e-4,-1.6653254 -0.96061,0.013459 c -0.528336,0.0074 -1.172294,0.01347 -1.431018,0.013483 L 11.125257,1.9415498 8.791973,4.406607 C 7.5086666,5.7623888 6.4472636,6.8744559 6.4332999,6.8778675 6.4193361,6.8812792 6.2965123,6.8282281 6.1603581,6.759976 5.9790016,6.6690649 5.9180752,6.6293512 5.9325139,6.6114604 5.9658698,6.5701296 10.248178,0.96512175 10.62975,0.46336453 L 10.988564,-0.0084679 13.494282,-0.00931654 16,-0.01016518 15.999046,2.6378653 15.998092,5.2858958 15.076363,6.3321269 C 14.569412,6.907554 14.146716,7.3805786 14.137038,7.3832927 14.127359,7.386007 13.856417,7.15967 13.534943,6.8803216 Z"
     id="path7" />
  <path
     style="fill:#ffffff;stroke-width:0.0203304"
     d="M 9.7382465,15.153416 C 9.1959339,14.682757 8.7167911,14.267165 8.6734846,14.229879 l -0.078739,-0.06779 0.5154987,-0.600738 C 9.3937687,13.230942 9.6319202,12.96061 9.63947,12.96061 c 0.00755,0 0.2629541,0.233291 0.567565,0.518424 l 0.553838,0.518425 h 1.653871 1.653871 l -0.0027,-0.970775 c -0.0015,-0.533927 -0.0083,-1.177208 -0.01525,-1.429515 L 14.038119,11.13843 11.618806,8.8551394 C 10.288183,7.5993294 9.1766201,6.5497718 9.1486658,6.522789 L 9.0978398,6.473729 9.2151564,6.2457588 c 0.064524,-0.1253836 0.1250883,-0.2403089 0.1345872,-0.2553895 0.012897,-0.020476 0.3926777,0.2600872 1.4998334,1.1080051 0.81541,0.6244834 2.307832,1.7663885 3.316493,2.537567 L 16,11.038084 v 2.486041 2.48604 l -2.637865,-5.02e-4 -2.637866,-5.03e-4 z"
     id="path8" />
</svg>
