<?xml version="1.0" encoding="UTF-8" standalone="no"?>
<!-- Generator: Adobe Illustrator 22.1.0, SVG Export Plug-In . SVG Version: 6.00 Build 0)  -->

<svg
   version="1.1"
   id="network"
   x="0px"
   y="0px"
   viewBox="0 0 50 50"
   enable-background="new 0 0 50 50"
   xml:space="preserve"
   sodipodi:docname="plugin-network.svg"
   inkscape:version="1.1 (c68e22c387, 2021-05-23)"
   xmlns:inkscape="http://www.inkscape.org/namespaces/inkscape"
   xmlns:sodipodi="http://sodipodi.sourceforge.net/DTD/sodipodi-0.dtd"
   xmlns="http://www.w3.org/2000/svg"
   xmlns:svg="http://www.w3.org/2000/svg"><defs
   id="defs47" /><sodipodi:namedview
   id="namedview45"
   pagecolor="#ffffff"
   bordercolor="#666666"
   borderopacity="1.0"
   inkscape:pageshadow="2"
   inkscape:pageopacity="0.0"
   inkscape:pagecheckerboard="0"
   showgrid="false"
   inkscape:zoom="4"
   inkscape:cx="58.125"
   inkscape:cy="38.125"
   inkscape:window-width="1920"
   inkscape:window-height="1017"
   inkscape:window-x="-8"
   inkscape:window-y="-8"
   inkscape:window-maximized="1"
   inkscape:current-layer="network" />
<rect
   x="5"
   y="34.5"
   fill="#333333"
   width="6.7"
   height="6.9"
   id="rect2"
   style="fill:#ffffff" />
<rect
   x="5"
   y="43.1"
   fill="#333333"
   width="6.7"
   height="6.9"
   id="rect4"
   style="fill:#ffffff" />
<rect
   x="13.3"
   y="43.1"
   fill="#333333"
   width="6.7"
   height="6.9"
   id="rect6"
   style="fill:#ffffff" />
<rect
   x="21.7"
   y="43.1"
   fill="#333333"
   width="6.7"
   height="6.9"
   id="rect8"
   style="fill:#ffffff" />
<rect
   x="30"
   y="43.1"
   fill="#333333"
   width="6.7"
   height="6.9"
   id="rect10"
   style="fill:#ffffff" />
<rect
   x="38.3"
   y="43.1"
   fill="#333333"
   width="6.7"
   height="6.9"
   id="rect12"
   style="fill:#ffffff" />
<rect
   x="21.7"
   y="34.5"
   fill="#333333"
   width="6.7"
   height="6.9"
   id="rect14"
   style="fill:#ffffff" />
<rect
   x="13.3"
   y="34.5"
   fill="#333333"
   width="6.7"
   height="6.9"
   id="rect16"
   style="fill:#ffffff" />
<rect
   x="30"
   y="34.5"
   fill="#333333"
   width="6.7"
   height="6.9"
   id="rect18"
   style="fill:#ffffff" />
<rect
   x="38.3"
   y="34.5"
   fill="#333333"
   width="6.7"
   height="6.9"
   id="rect20"
   style="fill:#ffffff" />
<rect
   x="13.3"
   y="25.9"
   fill="#333333"
   width="6.7"
   height="6.9"
   id="rect22"
   style="fill:#ffffff" />
<rect
   x="21.7"
   y="25.9"
   fill="#333333"
   width="6.7"
   height="6.9"
   id="rect24"
   style="fill:#ffffff" />
<rect
   x="30"
   y="25.9"
   fill="#333333"
   width="6.7"
   height="6.9"
   id="rect26"
   style="fill:#ffffff" />
<rect
   x="38.3"
   y="25.9"
   fill="#333333"
   width="6.7"
   height="6.9"
   id="rect28"
   style="fill:#ffffff" />
<rect
   x="13.3"
   y="17.2"
   fill="#333333"
   width="6.7"
   height="6.9"
   id="rect30"
   style="fill:#ffffff" />
<rect
   x="21.7"
   y="17.2"
   fill="#333333"
   width="6.7"
   height="6.9"
   id="rect32"
   style="fill:#ffffff" />
<rect
   x="30"
   y="17.2"
   fill="#333333"
   width="6.7"
   height="6.9"
   id="rect34"
   style="fill:#ffffff" />
<rect
   x="38.3"
   y="17.2"
   fill="#333333"
   width="6.7"
   height="6.9"
   id="rect36"
   style="fill:#ffffff" />
<rect
   x="13.3"
   y="8.6"
   fill="#333333"
   width="6.7"
   height="6.9"
   id="rect38"
   style="fill:#ffffff" />
<rect
   x="30"
   y="8.6"
   fill="#333333"
   width="6.7"
   height="6.9"
   id="rect40"
   style="fill:#ffffff" />
<rect
   x="30"
   fill="#333333"
   width="6.7"
   height="6.9"
   id="rect42"
   style="fill:#ffffff" />
<path
   style="fill:#ffffff;stroke-width:0.0615764"
   d="m 4.9876847,37.961823 v -3.417488 h 3.3559114 3.3559109 v 3.417488 3.417487 H 8.3435961 4.9876847 Z"
   id="path901" /><path
   style="fill:#ffffff;stroke-width:0.0615764"
   d="m 13.300493,37.961823 v -3.417488 h 3.355911 3.355911 v 3.417488 3.417487 h -3.355911 -3.355911 z"
   id="path940" /><path
   style="fill:#ffffff;stroke-width:0.0615764"
   d="m 13.300493,29.341133 v -3.417488 h 3.355911 3.355911 v 3.417488 3.417488 h -3.355911 -3.355911 z"
   id="path979" /><path
   style="fill:#ffffff;stroke-width:0.0615764"
   d="m 13.300493,20.658867 v -3.417488 h 3.355911 3.355911 v 3.417488 3.417488 h -3.355911 -3.355911 z"
   id="path1018" /><path
   style="fill:#ffffff;stroke-width:0.0615764"
   d="M 13.300493,12.038177 V 8.6206897 h 3.355911 3.355911 v 3.4174873 3.417488 h -3.355911 -3.355911 z"
   id="path1057" /><path
   style="fill:#ffffff;stroke-width:0.0615764"
   d="M 29.987685,3.4482759 V 0 h 3.355911 3.355911 v 3.4482759 3.4482758 h -3.355911 -3.355911 z"
   id="path1096" /><path
   style="fill:#ffffff;stroke-width:0.0615764"
   d="M 29.987685,12.038177 V 8.6206897 h 3.355911 3.355911 v 3.4174873 3.417488 h -3.355911 -3.355911 z"
   id="path1135" /><path
   style="fill:#ffffff;stroke-width:0.0615764"
   d="m 21.736453,20.658867 v -3.417488 h 3.325123 3.325124 v 3.417488 3.417488 h -3.325124 -3.325123 z"
   id="path1174" /><path
   style="fill:#ffffff;stroke-width:0.0615764"
   d="m 29.987685,20.658867 v -3.417488 h 3.355911 3.355911 v 3.417488 3.417488 h -3.355911 -3.355911 z"
   id="path1213" /><path
   style="fill:#ffffff;stroke-width:0.0615764"
   d="m 38.300493,20.658867 v -3.417488 h 3.355911 3.355911 v 3.417488 3.417488 h -3.355911 -3.355911 z"
   id="path1252" /><path
   style="fill:#ffffff;stroke-width:0.0615764"
   d="m 38.300493,29.341133 v -3.417488 h 3.355911 3.355911 v 3.417488 3.417488 h -3.355911 -3.355911 z"
   id="path1291" /><path
   style="fill:#ffffff;stroke-width:0.0615764"
   d="m 29.987685,29.341133 v -3.417488 h 3.355911 3.355911 v 3.417488 3.417488 h -3.355911 -3.355911 z"
   id="path1330" /><path
   style="fill:#ffffff;stroke-width:0.0615764"
   d="m 21.736453,29.341133 v -3.417488 h 3.325123 3.325124 v 3.417488 3.417488 h -3.325124 -3.325123 z"
   id="path1369" /><path
   style="fill:#ffffff;stroke-width:0.0615764"
   d="m 21.736453,37.961823 v -3.417488 h 3.325123 3.325124 v 3.417488 3.417487 h -3.325124 -3.325123 z"
   id="path1408" /><path
   style="fill:#ffffff;stroke-width:0.0615764"
   d="m 29.987685,37.961823 v -3.417488 h 3.355911 3.355911 v 3.417488 3.417487 h -3.355911 -3.355911 z"
   id="path1447" /><path
   style="fill:#ffffff;stroke-width:0.0615764"
   d="m 38.300493,37.961823 v -3.417488 h 3.355911 3.355911 v 3.417488 3.417487 h -3.355911 -3.355911 z"
   id="path1486" /><path
   style="fill:#ffffff;stroke-width:0.0615764"
   d="m 38.300493,46.551724 v -3.448276 h 3.355911 3.355911 V 46.551724 50 h -3.355911 -3.355911 z"
   id="path1525" /><path
   style="fill:#ffffff;stroke-width:0.0615764"
   d="m 29.987685,46.551724 v -3.448276 h 3.355911 3.355911 V 46.551724 50 h -3.355911 -3.355911 z"
   id="path1564" /><path
   style="fill:#ffffff;stroke-width:0.0615764"
   d="M 21.736453,46.551724 V 43.103448 H 25.061576 28.3867 V 46.551724 50 h -3.325124 -3.325123 z"
   id="path1603" /><path
   style="fill:#ffffff;stroke-width:0.0615764"
   d="m 13.300493,46.551724 v -3.448276 h 3.355911 3.355911 V 46.551724 50 h -3.355911 -3.355911 z"
   id="path1642" /><path
   style="fill:#ffffff;stroke-width:0.0615764"
   d="M 4.9876847,46.551724 V 43.103448 H 8.3435961 11.699507 V 46.551724 50 H 8.3435961 4.9876847 Z"
   id="path1681" /></svg>
