<?xml version="1.0" encoding="UTF-8" standalone="no"?>
<svg
   width="16"
   height="16"
   viewBox="0 0 16 16"
   fill="none"
   version="1.1"
   id="svg2"
   sodipodi:docname="processprocessus.svg"
   inkscape:version="1.3 (0e150ed6c4, 2023-07-21)"
   xmlns:inkscape="http://www.inkscape.org/namespaces/inkscape"
   xmlns:sodipodi="http://sodipodi.sourceforge.net/DTD/sodipodi-0.dtd"
   xmlns="http://www.w3.org/2000/svg"
   xmlns:svg="http://www.w3.org/2000/svg">
  <defs
     id="defs2" />
  <sodipodi:namedview
     id="namedview2"
     pagecolor="#ffffff"
     bordercolor="#000000"
     borderopacity="0.25"
     inkscape:showpageshadow="2"
     inkscape:pageopacity="0.0"
     inkscape:pagecheckerboard="0"
     inkscape:deskcolor="#d1d1d1"
     inkscape:zoom="49.1875"
     inkscape:cx="7.9898348"
     inkscape:cy="8"
     inkscape:window-width="1920"
     inkscape:window-height="1001"
     inkscape:window-x="-9"
     inkscape:window-y="-9"
     inkscape:window-maximized="1"
     inkscape:current-layer="svg2" />
  <path
     d="M14.688 8.384L16 7.936L15.936 6.912L14.56 6.656C14.5003 6.37485 14.4255 6.09712 14.336 5.824L15.424 4.896L14.976 3.968L13.6 4.256C13.4362 3.98983 13.243 3.74295 13.024 3.52L13.632 2.272L12.864 1.6L11.712 2.4C11.4778 2.24256 11.2317 2.10348 10.976 1.984L11.072 0.576L10.112 0.256L9.344 1.408C9.03703 1.34966 8.7273 1.30694 8.416 1.28L7.968 0L6.944 0.064L6.688 1.44C6.40685 1.49969 6.12912 1.57447 5.856 1.664L4.928 0.576L4 1.024L4.288 2.4C4.02183 2.56378 3.77495 2.75699 3.552 2.976L2.304 2.368L1.632 3.136L2.432 4.288C2.27456 4.52224 2.13548 4.76831 2.016 5.024L0.608 4.928L0.288 5.888L1.44 6.656C1.38166 6.96297 1.33894 7.2727 1.312 7.584L0 8.032L0.064 9.056L1.44 9.312C1.49969 9.59315 1.57447 9.87088 1.664 10.144L0.576 11.072L1.024 12L2.4 11.712C2.56378 11.9782 2.75699 12.2251 2.976 12.448L2.368 13.696L3.136 14.368L4.288 13.568C4.52224 13.7254 4.76831 13.8645 5.024 13.984L4.928 15.392L5.888 15.712L6.656 14.56C6.96297 14.6183 7.2727 14.6611 7.584 14.688L8.032 16L9.056 15.936L9.312 14.56C9.59315 14.5003 9.87088 14.4255 10.144 14.336L11.072 15.424L12 14.976L11.712 13.6C11.9782 13.4362 12.2251 13.243 12.448 13.024L13.696 13.632L14.368 12.864L13.568 11.712C13.7254 11.4778 13.8645 11.2317 13.984 10.976L15.392 11.072L15.712 10.112L14.56 9.344C14.624 9.024 14.656 8.704 14.688 8.384ZM3.392 10.272C2.94581 9.35746 2.78084 8.33116 2.91794 7.32286C3.05503 6.31456 3.48805 5.36956 4.16222 4.60736C4.83639 3.84516 5.72144 3.29999 6.70545 3.04079C7.68946 2.78159 8.72823 2.82 9.69041 3.15117C10.6526 3.48234 11.495 4.09139 12.111 4.9013C12.727 5.71121 13.0891 6.68561 13.1513 7.70128C13.2136 8.71695 12.9732 9.72827 12.4607 10.6074C11.9482 11.4864 11.1865 12.1938 10.272 12.64C9.04366 13.2256 7.63454 13.3055 6.34785 12.8626C5.06116 12.4198 3.99975 11.4895 3.392 10.272Z"
     fill="#333333"
     id="path1" />
  <path
     d="M8.00004 3.776C7.15195 3.776 6.32291 4.02749 5.61775 4.49866C4.91259 4.96983 4.36299 5.63953 4.03844 6.42305C3.71389 7.20658 3.62898 8.06876 3.79443 8.90055C3.95988 9.73234 4.36828 10.4964 4.96796 11.0961C5.56765 11.6958 6.3317 12.1042 7.16349 12.2696C7.99528 12.4351 8.85745 12.3501 9.64098 12.0256C10.4245 11.701 11.0942 11.1514 11.5654 10.4463C12.0366 9.74113 12.288 8.91209 12.288 8.064C12.288 6.92675 11.8363 5.83608 11.0321 5.03193C10.228 4.22777 9.13729 3.776 8.00004 3.776ZM8.00004 11.296C7.35448 11.296 6.72342 11.1046 6.18666 10.7459C5.64989 10.3873 5.23154 9.8775 4.9845 9.28108C4.73745 8.68466 4.67281 8.02838 4.79875 7.39523C4.9247 6.76207 5.23556 6.18048 5.69204 5.724C6.14852 5.26753 6.73011 4.95666 7.36326 4.83072C7.99642 4.70478 8.6527 4.76941 9.24912 5.01646C9.84553 5.2635 10.3553 5.68186 10.714 6.21862C11.0726 6.75538 11.264 7.38644 11.264 8.032C11.2604 8.89655 10.9154 9.72466 10.304 10.336C9.6927 10.9473 8.86459 11.2924 8.00004 11.296Z"
     fill="#333333"
     id="path2" />
  <path
     style="fill:#ffffff;stroke-width:0.0203304"
     d="m 8.0128281,15.966142 c -0.00988,-0.0261 -0.1119716,-0.32271 -0.226863,-0.659122 l -0.2088935,-0.611659 -0.235804,-0.02463 c -0.1296921,-0.01355 -0.3362769,-0.04188 -0.4590772,-0.06297 -0.1228005,-0.02109 -0.2280102,-0.03091 -0.2337992,-0.02182 -0.00579,0.0091 -0.1782669,0.268257 -0.3832836,0.575942 L 5.8923497,15.721309 5.413537,15.561392 C 5.15019,15.473438 4.9311095,15.397861 4.9266917,15.393443 c -0.00697,-0.007 0.059542,-1.072552 0.081674,-1.308535 l 0.00801,-0.08536 -0.2667621,-0.146114 c -0.1467194,-0.08036 -0.3050053,-0.17232 -0.3517468,-0.20435 -0.046741,-0.03203 -0.094373,-0.05823 -0.1058473,-0.05823 -0.017502,0 -0.5647026,0.373037 -1.0309507,0.702818 L 3.1371212,14.381334 2.7629697,14.055032 C 2.5571865,13.875566 2.3815154,13.721967 2.3725896,13.713702 2.3636637,13.705436 2.4934872,13.417973 2.661086,13.074894 L 2.9658112,12.451116 2.8240697,12.294173 C 2.7461119,12.207854 2.6254372,12.056354 2.5559036,11.957505 2.4863701,11.858657 2.4203304,11.765198 2.4091487,11.74982 2.3922927,11.72664 2.2728911,11.74632 1.7104502,11.865153 1.3373478,11.943963 1.024882,12.000829 1.0160819,11.991518 0.9913899,11.965388 0.5628393,11.069319 0.5716444,11.062228 0.6219504,11.021718 1.5854227,10.200993 1.6128713,10.17527 1.6489043,10.1415 1.6474543,10.13099 1.5691373,9.8579745 1.5245858,9.7026704 1.4769952,9.5189493 1.46338,9.4497053 L 1.438625,9.3238073 1.3444713,9.3040268 C 1.2926868,9.2931474 0.98624533,9.2355692 0.66349026,9.1760748 0.14779927,9.0810161 0.07483451,9.0629406 0.0615804,9.0269632 0.04239361,8.9748818 -0.01004945,8.0439333 0.00533671,8.0285473 0.01165159,8.0222323 0.30350433,7.9191866 0.65389835,7.7995566 l 0.63708005,-0.2175091 0.01523,-0.090897 c 0.00838,-0.049993 0.033551,-0.2235523 0.055943,-0.385687 0.022392,-0.1621347 0.046339,-0.3283019 0.053217,-0.3692605 L 1.4278719,6.6617332 0.87149629,6.2915149 C 0.56548973,6.0878949 0.30723106,5.9140759 0.29758815,5.9052505 0.28468554,5.8934416 0.56217504,5.0007961 0.60089759,4.9295457 c 0.003208,-0.0059 0.29701912,0.00953 0.65291271,0.034307 0.3558935,0.024773 0.6721359,0.045613 0.7027608,0.046312 0.04976,0.00114 0.064647,-0.016566 0.1399845,-0.1664547 C 2.1429223,4.7514612 2.2312697,4.5936468 2.2928834,4.4930114 2.354497,4.3923761 2.4050999,4.3002147 2.4053343,4.2882084 2.4055685,4.2762021 2.2294729,4.0126475 2.0140107,3.7025315 1.6621181,3.1960512 1.6252301,3.1351848 1.6514452,3.1042852 1.8453553,2.8757237 2.2874759,2.3770521 2.3009041,2.371755 c 0.00962,-0.00379 0.292113,0.1265745 0.627768,0.2897078 0.335655,0.1631331 0.6143431,0.2966058 0.619307,0.2966058 0.00496,0 0.068842,-0.054208 0.1419507,-0.1204625 0.1479815,-0.1341068 0.3923588,-0.3220885 0.5054934,-0.3888396 0.040675,-0.023999 0.073954,-0.055551 0.073954,-0.070116 0,-0.029268 -0.2601712,-1.2850424 -0.2751573,-1.3281078 -0.00636,-0.018288 0.1379395,-0.0984322 0.448422,-0.24904661 C 4.6944352,0.67935177 4.9116971,0.57996241 4.9254463,0.58063087 4.9391955,0.58129933 5.1545202,0.82245465 5.4039455,1.1165316 L 5.8574463,1.651217 6.0894097,1.5843677 c 0.12758,-0.036767 0.3129525,-0.086472 0.4119392,-0.1104555 L 6.6813247,1.430306 6.808185,0.7461479 C 6.8779582,0.36986096 6.9367947,0.06052956 6.9389331,0.05874478 6.9544598,0.04578497 7.9611088,-0.00608986 7.9717304,0.00552248 7.9791797,0.01366682 8.0826293,0.29886992 8.2016183,0.63930714 8.3206075,0.97974437 8.42032,1.2606419 8.4232018,1.2635238 c 0.00288,0.00288 0.091814,0.015337 0.1976265,0.027677 0.1058126,0.01234 0.3100714,0.041001 0.4539086,0.063689 0.1438371,0.022689 0.268505,0.033601 0.2770397,0.024249 0.00853,-0.00935 0.1814032,-0.2663051 0.3841522,-0.57100645 0.2027489,-0.3047014 0.3754082,-0.55400254 0.3836882,-0.55400254 0.01567,0 0.945717,0.30678973 0.956281,0.31544351 0.0065,0.005348 -0.07046,1.18699718 -0.08619,1.32287338 -0.0092,0.079326 -0.0062,0.084624 0.06578,0.1183386 0.114098,0.053416 0.470677,0.2549969 0.568345,0.3212952 l 0.08635,0.058614 0.561022,-0.3897874 c 0.308563,-0.2143831 0.572887,-0.390917 0.587387,-0.3922976 0.0145,-0.00138 0.196198,0.1459866 0.403774,0.3274825 l 0.377409,0.3299926 -0.04813,0.1071103 c -0.02647,0.058911 -0.162636,0.3404013 -0.30259,0.6255348 l -0.254462,0.5184243 0.07689,0.081322 c 0.122393,0.1294486 0.278898,0.3264208 0.388992,0.4895732 0.05598,0.082958 0.109981,0.1508334 0.120003,0.1508334 0.01002,0 0.304787,-0.059965 0.655035,-0.1332552 0.350247,-0.07329 0.652929,-0.135044 0.672626,-0.13723 0.02781,-0.00309 0.086,0.1001883 0.260321,0.4619503 0.215074,0.446347 0.222967,0.4673775 0.187821,0.5004935 -0.02876,0.027095 -1.009969,0.8628013 -1.040296,0.8860269 -0.0041,0.00313 0.02602,0.123163 0.0669,0.2667493 0.04087,0.1435862 0.09017,0.3293009 0.109555,0.4126991 l 0.03524,0.1516333 0.677974,0.1261889 c 0.372886,0.069404 0.682956,0.1311712 0.689045,0.1372603 0.02116,0.021156 0.07251,1.0082127 0.05344,1.0271252 -0.01024,0.01016 -0.301154,0.1147405 -0.646464,0.2324021 -0.34531,0.1176614 -0.631403,0.2174962 -0.635761,0.221855 -0.0044,0.00436 -0.02575,0.1579188 -0.04753,0.3412444 -0.02178,0.1833256 -0.04903,0.3825986 -0.06055,0.4428288 -0.01152,0.06023 -0.02095,0.1219003 -0.02095,0.1370447 0,0.015145 0.249301,0.1934213 0.554003,0.3961702 0.304701,0.2027491 0.561892,0.3758556 0.571535,0.3846806 0.01285,0.01177 -0.264314,0.903681 -0.303102,0.97537 -0.0031,0.0057 -0.292331,-0.0098 -0.642748,-0.03439 -0.350417,-0.02463 -0.666752,-0.04532 -0.702968,-0.04598 -0.06244,-0.0011 -0.07021,0.0075 -0.15015,0.166534 -0.04637,0.09225 -0.134714,0.250063 -0.196327,0.350699 -0.06161,0.100635 -0.112217,0.192742 -0.112451,0.204683 -2.34e-4,0.01194 0.175933,0.275415 0.391483,0.5855 0.353633,0.508726 0.389023,0.567167 0.362358,0.598366 -0.286976,0.335767 -0.614662,0.709566 -0.634473,0.723756 -0.01714,0.01228 -0.226688,-0.07952 -0.638137,-0.279543 -0.336942,-0.163801 -0.617185,-0.29782 -0.622761,-0.29782 -0.0056,0 -0.06996,0.05421 -0.143066,0.120463 -0.147981,0.134107 -0.392359,0.322088 -0.505493,0.38884 -0.04068,0.024 -0.07395,0.05555 -0.07395,0.07012 0,0.02928 0.260174,1.285052 0.275164,1.328125 0.0064,0.0183 -0.137573,0.0984 -0.447548,0.249047 -0.251316,0.122135 -0.468581,0.22149 -0.482811,0.220789 -0.01423,-7.02e-4 -0.229888,-0.242099 -0.479239,-0.53644 l -0.453367,-0.535164 -0.1870399,0.05561 c -0.1028721,0.03059 -0.2882981,0.0805 -0.4120582,0.110912 l -0.2250179,0.0553 -0.1268758,0.68424 c -0.069781,0.376333 -0.1286249,0.685801 -0.1307633,0.687708 -0.00214,0.0019 -0.1685637,0.01353 -0.3698344,0.02584 -0.2012706,0.0123 -0.4322065,0.02775 -0.5131909,0.03433 -0.1407195,0.01143 -0.1480405,0.0099 -0.1652135,-0.0355 z M 8.7013977,13.090518 C 10.396802,12.87466 11.855771,11.829928 12.614818,10.288213 12.793918,9.9244412 12.883032,9.6876607 12.981006,9.3152423 13.43301,7.5970781 12.957852,5.758066 11.730623,4.4758609 10.522303,3.2134128 8.7966032,2.6536152 7.0851334,2.9689165 4.8339727,3.3836442 3.1347517,5.2342607 2.9058299,7.5205835 c -0.037152,0.3710463 -0.014777,0.9894229 0.048978,1.3536223 0.1828593,1.0445795 0.6360702,1.9316982 1.3747517,2.6909502 0.9098361,0.935174 2.1236615,1.486574 3.446806,1.56577 0.2013217,0.01205 0.6758098,-0.0087 0.9250318,-0.04041 z"
     id="path3" />
  <path
     style="fill:#ffffff;stroke-width:0.0203304"
     d="M 7.72554,12.347842 C 6.9996212,12.307411 6.2581786,12.058573 5.6315121,11.64506 3.8359918,10.460265 3.1971919,8.1250051 4.1392066,6.1896413 4.5453732,5.3551742 5.1772405,4.7004653 5.9974587,4.2642144 6.9523517,3.7563337 8.1198111,3.6351032 9.1775071,3.933994 c 1.5361949,0.4341084 2.7106059,1.7046784 3.0304279,3.2785555 0.187714,0.9237577 0.06602,1.8830321 -0.346313,2.7299141 -0.607844,1.2484314 -1.76087,2.1115954 -3.1500591,2.3581584 -0.2367994,0.04203 -0.6897614,0.06372 -0.9860229,0.04722 z M 8.5085009,11.242404 C 9.6266643,11.067138 10.608651,10.277218 11.02173,9.220739 11.181475,8.8121781 11.246991,8.4644479 11.2479,8.0203304 11.248976,7.4940528 11.139785,7.0399927 10.894633,6.5513033 10.491237,5.7471683 9.7251371,5.126907 8.8437103,4.8908053 8.3131094,4.748677 7.6706019,4.7483095 7.1562897,4.8898403 5.8887461,5.2386489 4.9788111,6.2682753 4.776002,7.5832274 4.737318,7.8340444 4.746404,8.3139255 4.795065,8.5900198 c 0.2359615,1.3388034 1.2609069,2.3767172 2.6094961,2.6425132 0.3210448,0.06327 0.7393669,0.06701 1.1039396,0.0099 z"
     id="path4" />
</svg>
