<?xml version="1.0" encoding="UTF-8" standalone="no"?>
<!-- Generator: Adobe Illustrator 22.1.0, SVG Export Plug-In . SVG Version: 6.00 Build 0)  -->

<svg
   version="1.1"
   id="processor"
   x="0px"
   y="0px"
   viewBox="0 0 50 50"
   enable-background="new 0 0 50 50"
   xml:space="preserve"
   sodipodi:docname="plugin-processor.svg"
   inkscape:version="1.1 (c68e22c387, 2021-05-23)"
   xmlns:inkscape="http://www.inkscape.org/namespaces/inkscape"
   xmlns:sodipodi="http://sodipodi.sourceforge.net/DTD/sodipodi-0.dtd"
   xmlns="http://www.w3.org/2000/svg"
   xmlns:svg="http://www.w3.org/2000/svg"><defs
   id="defs39" /><sodipodi:namedview
   id="namedview37"
   pagecolor="#ffffff"
   bordercolor="#666666"
   borderopacity="1.0"
   inkscape:pageshadow="2"
   inkscape:pageopacity="0.0"
   inkscape:pagecheckerboard="0"
   showgrid="false"
   inkscape:zoom="11.483414"
   inkscape:cx="25.645683"
   inkscape:cy="27.126079"
   inkscape:window-width="1920"
   inkscape:window-height="1017"
   inkscape:window-x="-8"
   inkscape:window-y="-8"
   inkscape:window-maximized="1"
   inkscape:current-layer="processor" />
<path
   fill="#333333"
   d="M15.5,11c0.8,0,1.4-0.6,1.4-1.4V1.4c0-0.8-0.6-1.4-1.4-1.4c-0.8,0-1.4,0.6-1.4,1.4v8.2  C14.1,10.3,14.7,11,15.5,11L15.5,11z M15.5,11"
   id="path2"
   style="fill:#ffffff" />
<path
   fill="#333333"
   d="M34.5,11c0.8,0,1.4-0.6,1.4-1.4V1.4c0-0.8-0.6-1.4-1.4-1.4c-0.8,0-1.4,0.6-1.4,1.4v8.2  C33.2,10.3,33.8,11,34.5,11L34.5,11z M34.5,11"
   id="path4"
   style="fill:#ffffff" />
<path
   fill="#333333"
   d="M21.8,11c0.8,0,1.4-0.6,1.4-1.4V1.4c0-0.8-0.6-1.4-1.4-1.4s-1.4,0.6-1.4,1.4v8.2C20.4,10.3,21.1,11,21.8,11  L21.8,11z M21.8,11"
   id="path6"
   style="fill:#ffffff" />
<path
   fill="#333333"
   d="M28.2,11c0.8,0,1.4-0.6,1.4-1.4V1.4c0-0.8-0.6-1.4-1.4-1.4s-1.4,0.6-1.4,1.4v8.2C26.8,10.3,27.4,11,28.2,11  L28.2,11z M28.2,11"
   id="path8"
   style="fill:#ffffff" />
<path
   fill="#333333"
   d="M15.5,50c0.8,0,1.4-0.6,1.4-1.4v-8.2c0-0.8-0.6-1.4-1.4-1.4c-0.8,0-1.4,0.6-1.4,1.4v8.2  C14.1,49.4,14.7,50,15.5,50L15.5,50z M15.5,50"
   id="path10"
   style="fill:#ffffff" />
<path
   fill="#333333"
   d="M34.5,50c0.8,0,1.4-0.6,1.4-1.4v-8.2c0-0.8-0.6-1.4-1.4-1.4c-0.8,0-1.4,0.6-1.4,1.4v8.2  C33.2,49.4,33.8,50,34.5,50L34.5,50z M34.5,50"
   id="path12"
   style="fill:#ffffff" />
<path
   fill="#333333"
   d="M21.8,50c0.8,0,1.4-0.6,1.4-1.4v-8.2c0-0.8-0.6-1.4-1.4-1.4s-1.4,0.6-1.4,1.4v8.2C20.4,49.4,21.1,50,21.8,50  L21.8,50z M21.8,50"
   id="path14"
   style="fill:#ffffff" />
<path
   fill="#333333"
   d="M28.2,50c0.8,0,1.4-0.6,1.4-1.4v-8.2c0-0.8-0.6-1.4-1.4-1.4s-1.4,0.6-1.4,1.4v8.2C26.8,49.4,27.4,50,28.2,50  L28.2,50z M28.2,50"
   id="path16"
   style="fill:#ffffff" />
<path
   fill="#333333"
   d="M0,15.5c0,0.8,0.6,1.4,1.4,1.4h8.2c0.8,0,1.4-0.6,1.4-1.4c0-0.8-0.6-1.4-1.4-1.4H1.4C0.6,14.1,0,14.7,0,15.5  L0,15.5z M0,15.5"
   id="path18"
   style="fill:#ffffff" />
<path
   fill="#333333"
   d="M0,34.5c0,0.8,0.6,1.4,1.4,1.4h8.2c0.8,0,1.4-0.6,1.4-1.4c0-0.8-0.6-1.4-1.4-1.4H1.4C0.6,33.2,0,33.8,0,34.5  L0,34.5z M0,34.5"
   id="path20"
   style="fill:#ffffff" />
<path
   fill="#333333"
   d="M0,21.8c0,0.8,0.6,1.4,1.4,1.4h8.2c0.8,0,1.4-0.6,1.4-1.4s-0.6-1.4-1.4-1.4H1.4C0.6,20.4,0,21.1,0,21.8  L0,21.8z M0,21.8"
   id="path22"
   style="fill:#ffffff" />
<path
   fill="#333333"
   d="M0,28.2c0,0.8,0.6,1.4,1.4,1.4h8.2c0.8,0,1.4-0.6,1.4-1.4s-0.6-1.4-1.4-1.4H1.4C0.6,26.8,0,27.4,0,28.2  L0,28.2z M0,28.2"
   id="path24"
   style="fill:#ffffff" />
<path
   fill="#333333"
   d="M39,15.5c0,0.8,0.6,1.4,1.4,1.4h8.2c0.8,0,1.4-0.6,1.4-1.4c0-0.8-0.6-1.4-1.4-1.4h-8.2  C39.7,14.1,39,14.7,39,15.5L39,15.5z M39,15.5"
   id="path26"
   style="fill:#ffffff" />
<path
   fill="#333333"
   d="M39,34.5c0,0.8,0.6,1.4,1.4,1.4h8.2c0.8,0,1.4-0.6,1.4-1.4c0-0.8-0.6-1.4-1.4-1.4h-8.2  C39.7,33.2,39,33.8,39,34.5L39,34.5z M39,34.5"
   id="path28"
   style="fill:#ffffff" />
<path
   fill="#333333"
   d="M39,21.8c0,0.8,0.6,1.4,1.4,1.4h8.2c0.8,0,1.4-0.6,1.4-1.4s-0.6-1.4-1.4-1.4h-8.2C39.7,20.4,39,21.1,39,21.8  L39,21.8z M39,21.8"
   id="path30"
   style="fill:#ffffff" />
<path
   fill="#333333"
   d="M39,28.2c0,0.8,0.6,1.4,1.4,1.4h8.2c0.8,0,1.4-0.6,1.4-1.4s-0.6-1.4-1.4-1.4h-8.2C39.7,26.8,39,27.4,39,28.2  L39,28.2z M39,28.2"
   id="path32"
   style="fill:#ffffff" />
<path
   fill="#333333"
   d="M37.1,8.3H12.9c-2.5,0-4.6,2-4.6,4.6v24.2c0,2.5,2,4.6,4.6,4.6h24.2c2.5,0,4.6-2,4.6-4.6V12.9  C41.7,10.3,39.7,8.3,37.1,8.3z M35,35H15V15h20V35z"
   id="path34"
   style="fill:#ffffff" />
<path
   style="fill:#ffffff;stroke-width:0.0870821"
   d="m 14.934583,49.867027 c -0.354248,-0.163985 -0.639848,-0.489895 -0.742278,-0.847047 -0.04894,-0.17065 -0.085,-1.777909 -0.085,-3.788634 v -3.492248 l -1.025161,-0.05512 C 11.976927,41.62455 11.54671,41.525045 10.792883,41.154499 10.138095,40.832636 9.5749739,40.334687 9.1556534,39.706749 8.5694428,38.828891 8.4239893,38.339699 8.366734,37.05344 L 8.3163421,35.921373 4.5998407,35.877832 C 1.0175988,35.835863 0.87465652,35.827805 0.64298512,35.654746 0.20085078,35.324471 0.04976121,35.039726 0.04976121,34.536753 c 0,-0.556062 0.2702502,-0.977018 0.79437398,-1.237359 C 1.1504156,33.147259 1.4486213,33.13288 4.7677458,33.110202 l 3.5921373,-0.02454 v -1.73531 -1.73531 L 4.6806637,29.589709 C 1.1751525,29.565574 0.98705427,29.556086 0.69665693,29.388754 0.25715755,29.135505 -0.03802113,28.510442 0.03908108,27.996287 0.09904697,27.596406 0.38813092,27.166367 0.72782022,26.971723 0.86368478,26.893871 1.9198011,26.853004 4.6153521,26.821292 l 3.70099,-0.04354 v -1.785184 -1.785183 l -3.716482,-0.04354 C 1.0176461,23.121874 0.87469414,23.113815 0.64300456,22.940757 0.20086064,22.610501 0.04976121,22.325748 0.04976121,21.822764 c 0,-0.374198 0.04718578,-0.527681 0.23990546,-0.780349 0.131948,-0.172993 0.32648322,-0.364042 0.4323005,-0.424555 0.1431852,-0.08188 1.13901643,-0.121159 3.89338493,-0.153563 l 3.70099,-0.04354 0.023573,-1.763413 0.023574,-1.763413 -3.5939404,-0.0019 C 1.413883,16.890232 1.1511907,16.879021 0.80730869,16.722917 -0.11700264,16.303328 -0.2372937,15.019058 0.58868591,14.388822 l 0.31189051,-0.237978 3.72965338,-0.02529 3.7296533,-0.02529 V 13.11814 c 0,-1.514502 0.380285,-2.512145 1.3131983,-3.4450586 C 10.605995,8.7401681 11.603638,8.3598831 13.11814,8.3598831 h 0.982114 l 0.02529,-3.7296533 0.02529,-3.72965338 0.237978,-0.31189051 c 0.630236,-0.82597962 1.914506,-0.70568855 2.334095,0.21862278 0.156104,0.34388201 0.167315,0.60657431 0.169101,3.96224021 l 0.0019,3.5939404 1.763413,-0.023574 1.763413,-0.023573 0.04354,-3.744531 c 0.04062,-3.4930709 0.05464,-3.76091167 0.208867,-3.98845777 0.234527,-0.34602927 0.633447,-0.52867439 1.160456,-0.53131367 0.491712,-0.0024625 0.778041,0.15037382 1.107137,0.5909649 0.173058,0.23168958 0.181117,0.37464154 0.223086,3.95685554 l 0.04354,3.716482 1.806954,0.023537 1.806954,0.023537 V 4.7449451 c 0,-3.96013434 0.0035,-3.99005934 0.511065,-4.41717946 0.41143,-0.34619505 0.951733,-0.39831391 1.467566,-0.14156455 0.78013,0.38830091 0.760757,0.27805092 0.789786,4.49446261 l 0.02533,3.6792194 h 1.734523 1.734522 l 0.02533,-3.6792194 c 0.02903,-4.21641169 0.0097,-4.1061617 0.789786,-4.49446261 0.515832,-0.25674936 1.056136,-0.2046305 1.467565,0.14156455 0.507582,0.42710191 0.511066,0.45720187 0.511066,4.41541266 v 3.6167048 h 0.981558 c 1.909766,0 3.167359,0.6281146 4.08473,2.0401489 0.473225,0.728396 0.673791,1.453438 0.739353,2.672753 l 0.05525,1.027476 3.68153,0.02529 c 3.561969,0.02447 3.689337,0.03112 3.921892,0.204836 0.456909,0.341301 0.599451,0.619566 0.599451,1.170228 0,0.550661 -0.142542,0.828926 -0.599451,1.170227 -0.23259,0.173741 -0.359818,0.180364 -3.935085,0.204876 l -3.694723,0.02533 v 1.781624 1.781623 l 3.679219,3.49e-4 c 3.535927,3.48e-4 3.690439,0.0072 3.967299,0.175963 0.31756,0.193611 0.621331,0.761755 0.62437,1.167761 0.0032,0.421713 -0.310051,0.954658 -0.684838,1.1653 -0.332848,0.187048 -0.397943,0.190173 -3.962228,0.190173 h -3.623822 v 1.826009 1.826009 l 3.694706,0.02449 c 3.575935,0.0237 3.702432,0.03026 3.935085,0.204031 0.456918,0.341282 0.599468,0.619557 0.599468,1.170228 0,0.581189 -0.172274,0.887021 -0.662218,1.175608 -0.280917,0.165466 -0.477263,0.175431 -3.931363,0.199531 l -3.635678,0.02537 v 1.73445 1.734449 l 3.635678,0.02537 c 3.4541,0.0241 3.650446,0.03407 3.931363,0.199531 0.489944,0.288587 0.662218,0.594419 0.662218,1.175609 0,0.550671 -0.14255,0.828945 -0.599468,1.170228 -0.232618,0.173747 -0.359263,0.180335 -3.921847,0.204001 l -3.681468,0.02445 -0.05529,1.028313 c -0.06659,1.238452 -0.272022,1.966984 -0.761221,2.699565 -0.900643,1.348724 -2.0991,1.969647 -3.998808,2.071794 l -1.045657,0.05622 v 3.559782 c 0,3.898545 -0.0039,3.931744 -0.513215,4.360297 -0.752555,0.633234 -1.902591,0.220926 -2.181095,-0.78196 -0.05656,-0.203674 -0.09153,-1.630542 -0.09183,-3.74691 l -4.86e-4,-3.417973 H 31.35314 29.615094 l -0.02537,3.635678 c -0.0241,3.4541 -0.03407,3.650446 -0.199531,3.931363 -0.288587,0.489944 -0.594419,0.662218 -1.175608,0.662218 -0.550671,0 -0.828946,-0.14255 -1.170228,-0.599468 -0.173773,-0.232653 -0.180332,-0.35915 -0.204031,-3.935085 l -0.02449,-3.694706 h -1.826009 -1.826009 v 3.623822 c 0,3.564285 -0.0031,3.62938 -0.190195,3.962228 -0.206429,0.367289 -0.739675,0.686751 -1.146328,0.686751 -0.347841,0 -0.761796,-0.202398 -1.058235,-0.517411 l -0.261247,-0.277615 -0.02446,-3.738887 -0.02446,-3.738888 H 18.679986 16.90105 l -0.02533,3.694723 c -0.02451,3.575267 -0.03114,3.702495 -0.204876,3.935085 -0.09875,0.132198 -0.281968,0.316832 -0.407153,0.410296 -0.28857,0.215448 -0.982065,0.275238 -1.329108,0.11459 z M 35.007011,24.992567 V 14.978124 H 24.992567 14.978124 v 10.014443 10.014444 h 10.014443 10.014444 z"
   id="path893" /></svg>
