<?xml version="1.0" encoding="UTF-8" standalone="no"?>
<svg
   width="17"
   height="16"
   viewBox="0 0 17 16"
   fill="none"
   version="1.1"
   id="svg6"
   sodipodi:docname="replicareplica.svg"
   inkscape:version="1.3 (0e150ed6c4, 2023-07-21)"
   xmlns:inkscape="http://www.inkscape.org/namespaces/inkscape"
   xmlns:sodipodi="http://sodipodi.sourceforge.net/DTD/sodipodi-0.dtd"
   xmlns="http://www.w3.org/2000/svg"
   xmlns:svg="http://www.w3.org/2000/svg">
  <defs
     id="defs6" />
  <sodipodi:namedview
     id="namedview6"
     pagecolor="#ffffff"
     bordercolor="#000000"
     borderopacity="0.25"
     inkscape:showpageshadow="2"
     inkscape:pageopacity="0.0"
     inkscape:pagecheckerboard="0"
     inkscape:deskcolor="#d1d1d1"
     inkscape:zoom="49.1875"
     inkscape:cx="8.498094"
     inkscape:cy="8"
     inkscape:window-width="1920"
     inkscape:window-height="1001"
     inkscape:window-x="-9"
     inkscape:window-y="-9"
     inkscape:window-maximized="1"
     inkscape:current-layer="svg6" />
  <path
     d="M3.73411 6.27199C5.46211 6.27199 6.90211 5.88799 7.25411 5.37599V2.62399C6.74211 3.03999 5.33411 3.35999 3.73411 3.35999C2.10211 3.35999 0.726111 3.03999 0.214111 2.62399V5.40799C0.566111 5.91999 2.00611 6.27199 3.73411 6.27199Z"
     fill="#333333"
     id="path1" />
  <path
     d="M3.73411 2.592C5.46211 2.592 6.90211 2.112 7.25411 1.472V1.408C7.28611 0.64 5.68611 0 3.73411 0C1.78211 0 0.214111 0.64 0.214111 1.408V1.472C0.566111 2.112 2.00611 2.592 3.73411 2.592Z"
     fill="#333333"
     id="path2" />
  <path
     d="M3.73411 10.112C5.46211 10.112 6.90211 9.72798 7.25411 9.18398V6.30399C6.74211 6.75199 5.33411 7.10399 3.73411 7.10399C2.10211 7.10399 0.726111 6.78399 0.214111 6.30399V9.18398C0.566111 9.69598 2.00611 10.112 3.73411 10.112Z"
     fill="#333333"
     id="path3" />
  <path
     d="M3.31809 12.032H7.28609V10.144C6.77409 10.656 5.36609 11.008 3.76609 11.008C2.13409 11.008 0.758094 10.656 0.246094 10.144V12.8C0.246094 13.472 1.59009 14.016 3.35009 14.112V12.032H3.31809Z"
     fill="#333333"
     id="path4" />
  <path
     d="M13.6221 14.048C14.9021 13.92 15.9261 13.504 16.2141 12.96V12.896V1.312H16.1821C16.0221 0.576 14.5181 0 12.6941 0C10.8381 0 9.33409 0.576 9.17409 1.312H9.14209V12.032H9.81409V10.048C10.2621 10.464 11.3181 10.752 12.6621 10.752C14.0061 10.752 15.0941 10.464 15.5101 10.048V12.608C15.2861 12.96 14.5501 13.28 13.5901 13.408L13.6221 14.048ZM15.5421 9.12C15.2541 9.664 14.1341 10.08 12.6621 10.08C11.2221 10.08 10.0701 9.664 9.78209 9.12V6.208C10.2301 6.656 11.3181 7.008 12.6621 7.008C14.0061 7.008 15.0941 6.688 15.5421 6.208V9.12ZM15.5741 5.312C15.2861 5.824 14.1341 6.176 12.6941 6.176C11.2541 6.176 10.1021 5.856 9.81409 5.344V2.528C10.2621 2.976 11.3181 3.232 12.6941 3.232C14.0381 3.232 15.1261 2.944 15.5741 2.496V5.312ZM15.5741 1.664C15.2861 2.176 14.1341 2.528 12.6941 2.528C11.2541 2.528 10.1021 2.176 9.81409 1.664V1.632C9.81409 0.992 11.0621 0.576 12.6941 0.576C14.3261 0.576 15.5741 0.992 15.5741 1.6V1.664Z"
     fill="#333333"
     id="path5" />
  <path
     d="M12.5661 13.824L10.4861 11.648V12.704H4.02209V14.912H10.4861V16L12.5661 13.824Z"
     fill="#333333"
     id="path6" />
  <path
     style="fill:#ffffff;stroke-width:0.0203304"
     d="M 3.1410419,14.106343 C 3.1074968,14.10249 2.9794155,14.089364 2.8564168,14.077175 1.7299273,13.965542 0.72746186,13.606629 0.40375499,13.199048 0.23341679,12.984574 0.24491322,13.104814 0.24441092,11.532484 l -4.465e-4,-1.39763 0.1270648,0.102567 c 0.1439714,0.116215 0.48662272,0.290482 0.75531048,0.384139 0.3927031,0.136886 0.910359,0.246263 1.5166082,0.320448 0.4308808,0.05273 1.8094307,0.05203 2.2465057,-0.0011 1.0371027,-0.126151 1.8476119,-0.376919 2.2736472,-0.703457 l 0.1355015,-0.103856 v 0.956092 0.956092 H 5.3265565 3.3545108 v 1.036849 1.036849 l -0.076239,-0.003 c -0.041931,-0.0017 -0.1036849,-0.0062 -0.13723,-0.01005 z"
     id="path7" />
  <path
     style="fill:#ffffff;stroke-width:0.0203304"
     d="M 2.9580686,10.092499 C 1.7095486,9.9931989 0.6749232,9.6810208 0.29343428,9.2884977 L 0.20330368,9.1957601 V 7.743346 6.2909318 l 0.10673444,0.080308 C 0.72750408,6.6853467 1.5121059,6.9186574 2.5443393,7.0356361 2.9335953,7.0797488 4.1035605,7.0981754 4.5074871,7.066555 5.6708916,6.9754808 6.6449598,6.7221157 7.1268924,6.3852208 l 0.1310492,-0.09161 v 1.4538115 1.4538113 l -0.094919,0.1014756 c -0.36874,0.394213 -1.367225,0.6922718 -2.6486623,0.7906558 -0.3110636,0.02388 -1.2517113,0.02336 -1.5562917,-8.66e-4 z"
     id="path8" />
  <path
     style="fill:#ffffff;stroke-width:0.0203304"
     d="M 2.9885642,6.2598392 C 2.9494282,6.2555348 2.8030496,6.2423642 2.6632783,6.230571 1.6663309,6.1464541 0.767947,5.8940694 0.37909158,5.5888701 0.18628722,5.4375447 0.20234159,5.5859725 0.20824513,4.0093404 l 0.005224,-1.3950787 0.0914867,0.062752 C 1.1109284,3.2298426 3.31701,3.4952078 5.1639136,3.2614882 6.0398347,3.1506433 6.7949127,2.9280926 7.1715375,2.6697639 l 0.086404,-0.059265 v 1.384157 c 0,1.5737024 0.018454,1.4206936 -0.1904385,1.5790066 C 6.7469617,5.8165908 6.137946,6.0275015 5.407878,6.1484139 4.85722,6.2396129 4.6306415,6.2559319 3.8322745,6.261895 3.4073698,6.265065 3.0277001,6.264145 2.9885642,6.259835 Z"
     id="path9" />
  <path
     style="fill:#ffffff;stroke-width:0.0203304"
     d="M 2.8770826,2.5604393 C 2.3339714,2.5046128 1.7063888,2.3733912 1.3211416,2.2351067 0.8334276,2.0600419 0.42651204,1.8012131 0.26115637,1.5608768 0.20430154,1.4782412 0.19921363,1.4584637 0.20940552,1.3597139 0.26684228,0.80320518 1.1055492,0.31778454 2.380863,0.10293363 2.873689,0.0199077 3.1450678,-5.3446506e-5 3.7611182,0.00140957 4.5438823,0.0032685 5.0467964,0.06219403 5.669833,0.22505014 6.653354,0.48213365 7.2578614,0.91960783 7.2579255,1.3743321 7.257944,1.5054299 7.213244,1.5806805 7.0393078,1.7423654 6.6409976,2.1126209 5.770755,2.4179395 4.7573062,2.5429904 4.3746484,2.5902069 3.2667082,2.6004889 2.8770826,2.5604393 Z"
     id="path10" />
  <path
     style="fill:#ffffff;stroke-width:0.0203304"
     d="M 10.47014,15.464789 V 14.912325 H 7.2376112 4.0050826 V 13.80432 12.696315 h 3.2321911 3.2321913 l 0.0054,-0.533466 0.0054,-0.533466 1.036849,1.083846 c 0.570267,0.596116 1.036849,1.095817 1.036849,1.110448 0,0.02198 -1.859262,1.985205 -2.030737,2.144289 l -0.05313,0.04929 z"
     id="path11" />
  <path
     style="fill:#ffffff;stroke-width:0.0203304"
     d="m 13.614273,14.023369 c -0.0056,-0.01984 -0.01312,-0.16786 -0.01678,-0.328929 l -0.0066,-0.292853 0.222818,-0.0377 c 0.741077,-0.125395 1.393864,-0.401307 1.632483,-0.690001 l 0.0459,-0.05553 -0.0052,-1.262212 -0.0052,-1.262213 -0.101652,0.07295 c -0.385514,0.276655 -1.047669,0.468774 -1.931385,0.560376 -0.315071,0.03266 -1.274335,0.0324 -1.575604,-4.27e-4 -0.881825,-0.09608 -1.511427,-0.279536 -1.916137,-0.558326 l -0.13723,-0.09453 v 0.985888 0.985887 H 9.4739517 9.1283355 V 6.678526 c 0,-2.9519695 0.00731,-5.3672172 0.016246,-5.3672172 0.00894,0 0.028249,-0.034307 0.04292,-0.076239 0.2606413,-0.74496723 1.9019255,-1.29094743 3.7222825,-1.23823314 1.080706,0.0312953 2.056776,0.25639327 2.661307,0.61374148 0.23305,0.13775945 0.470442,0.36318648 0.549889,0.52217306 0.0341,0.068233 0.06199,0.1363226 0.06199,0.1513091 0,0.014987 0.0091,0.027248 0.02033,0.027248 0.01351,0 0.02033,1.9574753 0.02033,5.8317654 V 12.97484 l -0.05866,0.07929 c -0.321237,0.434197 -1.049949,0.767393 -2.035534,0.930725 -0.472386,0.07828 -0.503349,0.0806 -0.515166,0.03852 z m -0.127892,-3.999804 c 0.94242,-0.1129633 1.679205,-0.4105082 1.974657,-0.7974492 l 0.07136,-0.093462 V 7.692121 c 0,-0.792293 -0.0077,-1.4405327 -0.01718,-1.4405327 -0.0094,0 -0.03461,0.01941 -0.05591,0.043133 -0.06546,0.072901 -0.268408,0.2014585 -0.465204,0.2946818 -0.39345,0.1863789 -0.923596,0.3198052 -1.535406,0.3864281 -0.414912,0.045182 -1.1843,0.044941 -1.574724,-4.927e-4 C 11.068428,6.8804326 10.39022,6.6647854 9.9606671,6.36379 L 9.7992376,6.2506732 v 1.4408635 1.4408632 l 0.057659,0.079289 c 0.3110474,0.4277321 1.1830304,0.7506759 2.2701684,0.8407691 0.303148,0.02512 1.039203,0.0095 1.359316,-0.02889 z M 13.204574,6.1494699 c 1.106045,-0.073147 1.903809,-0.3268678 2.261754,-0.7193287 l 0.106734,-0.1170265 v -1.401391 -1.401391 l -0.107073,0.087212 C 14.899801,3.0587117 13.506646,3.3160594 12.086404,3.2218322 11.088341,3.1556147 10.318854,2.9451783 9.9189745,2.6290921 L 9.819568,2.5505157 V 3.955887 5.3612584 l 0.13723,0.1361869 c 0.214913,0.2132796 0.553286,0.3710007 1.052097,0.490399 0.628552,0.1504543 1.450132,0.2109314 2.195679,0.1616256 z m 0.477764,-3.688319 c 0.927821,-0.1313651 1.589391,-0.3943484 1.830968,-0.7278352 0.05344,-0.073772 0.05997,-0.096443 0.04819,-0.1672685 C 15.536776,1.4174941 15.489243,1.3339647 15.361337,1.2143145 14.999325,0.87567049 14.230781,0.6612418 13.153748,0.59838321 12.177096,0.5413831 11.122004,0.67183726 10.517791,0.92429939 10.09386,1.1014333 9.8626351,1.3227245 9.8265736,1.5858219 l -0.012565,0.09167 0.1505332,0.147277 c 0.3585332,0.350777 1.0369472,0.5681973 2.1015322,0.6735045 0.216983,0.021464 1.393298,-0.00555 1.616264,-0.037123 z"
     id="path12" />
</svg>
