<?xml version="1.0" encoding="UTF-8" standalone="no"?>
<!-- Generator: Adobe Illustrator 22.1.0, SVG Export Plug-In . SVG Version: 6.00 Build 0)  -->

<svg
   version="1.1"
   id="backup"
   x="0px"
   y="0px"
   viewBox="0 0 50 50"
   enable-background="new 0 0 50 50"
   xml:space="preserve"
   sodipodi:docname="plugin-backup.svg"
   inkscape:version="1.1 (c68e22c387, 2021-05-23)"
   xmlns:inkscape="http://www.inkscape.org/namespaces/inkscape"
   xmlns:sodipodi="http://sodipodi.sourceforge.net/DTD/sodipodi-0.dtd"
   xmlns="http://www.w3.org/2000/svg"
   xmlns:svg="http://www.w3.org/2000/svg"><defs
   id="defs15" /><sodipodi:namedview
   id="namedview13"
   pagecolor="#ffffff"
   bordercolor="#666666"
   borderopacity="1.0"
   inkscape:pageshadow="2"
   inkscape:pageopacity="0.0"
   inkscape:pagecheckerboard="0"
   showgrid="false"
   inkscape:zoom="16.24"
   inkscape:cx="25.030788"
   inkscape:cy="24.907635"
   inkscape:window-width="1920"
   inkscape:window-height="1017"
   inkscape:window-x="-8"
   inkscape:window-y="-8"
   inkscape:window-maximized="1"
   inkscape:current-layer="backup" />
<g
   id="g4"
   style="fill:#ffffff">
	<path
   fill="#333333"
   d="M46,27.9v-6c0-4.4-3.6-8-8-8c-4.4,0-8,3.6-8,8v6c-2.2,0-4,1.8-4,4v10c0,2.2,1.8,4,4,4h16c2.2,0,4-1.8,4-4   v-10C50,29.7,48.2,27.9,46,27.9L46,27.9z M39,37.6V41c0,0.6-0.4,1-1,1c-0.6,0-1-0.4-1-1v-3.3c-0.6-0.3-1-1-1-1.7c0-1.1,0.9-2,2-2   c1.1,0,2,0.9,2,2C40,36.7,39.6,37.3,39,37.6L39,37.6z M42,27.9h-8v-6c0-2.2,1.8-4,4-4c2.2,0,4,1.8,4,4V27.9z M42,27.9"
   id="path2"
   style="fill:#ffffff" />
</g>
<path
   fill="#333333"
   d="M23.4,42.1v-7.8h-5.2H5c-2.6,0-5,1.1-5,3.7v0.8v1.9v0.8C0,44.2,2.4,46,5,46h9.3h11.3  C24.7,44.3,23.4,43.5,23.4,42.1z"
   id="path6"
   style="fill:#ffffff" />
<path
   fill="#333333"
   d="M16.9,19.1h-5.4H5c-2.6,0-5,1.1-5,3.7v0.8v1.9v0.8c0,2.6,2.4,4.5,5,4.5h9.3h4.7h5c0.1-1.7,1.1-4,2.8-4v-6.2  c0-0.6,0.4-1.5,0.6-1.5H16.9z"
   id="path8"
   style="fill:#ffffff" />
<path
   fill="#333333"
   d="M40.6,4H28.3H16.9h-5.4H5C2.4,4,0,5.1,0,7.7v0.4v0.4v1.9v0.3v0.5c0,2.6,2.4,4.5,5,4.5h9.3h4.7h5.4H29  c1.5-3.1,4.7-4.8,8.3-4.8c3,0,5.6,0.5,7.3,2.2c0.4-0.7,0.6-1.6,0.6-2.4V8.2C45.2,5.7,43.2,4,40.6,4z"
   id="path10"
   style="fill:#ffffff" />
<path
   style="fill:#ffffff;stroke:#0f9ac9;stroke-width:0.0615764;stroke-opacity:1;fill-opacity:1"
   d="M 4.4890179,45.994757 C 3.7991615,45.933278 3.2980573,45.794252 2.6169951,45.475385 1.3452084,44.879945 0.47944711,43.881633 0.12471044,42.601523 0.00935855,42.185262 5.4846059e-5,41.973496 7.308436e-4,39.779563 0.0013036,37.92068 0.02049464,37.336126 0.08945553,37.07703 0.4334235,35.784692 1.4359328,34.934954 3.1711823,34.464924 l 0.4926108,-0.133434 9.8676109,-0.01801 9.867611,-0.018 4.92e-4,3.865191 c 3.08e-4,2.358486 0.02522,4.017741 0.06397,4.256532 0.08858,0.545906 0.313543,0.954864 1.100716,2.000996 0.707159,0.939793 1.067015,1.504581 1.013657,1.590916 -0.03908,0.06323 -20.3735242,0.04939 -21.0888014,-0.01436 z"
   id="path1327" /><path
   style="fill:#ffffff;fill-opacity:1;stroke:#0f9ac9;stroke-width:0.0615764;stroke-opacity:1"
   d="m 29.357351,45.872364 c -1.236656,-0.208233 -2.377622,-1.042135 -2.926614,-2.138988 -0.46662,-0.932278 -0.45237,-0.700282 -0.432024,-7.033869 l 0.0181,-5.634236 0.142691,-0.400246 c 0.314135,-0.881146 1.012428,-1.759289 1.753966,-2.205714 0.466167,-0.280644 1.140262,-0.504785 1.645515,-0.547144 l 0.422351,-0.03541 0.0229,-3.578158 c 0.02011,-3.142722 0.03606,-3.634358 0.131019,-4.03998 0.624894,-2.669175 2.392431,-4.779424 4.84039,-5.778903 3.087795,-1.260719 6.582757,-0.495784 8.861158,1.939424 0.814232,0.870271 1.392,1.830496 1.754458,2.915833 0.391694,1.17288 0.406275,1.357382 0.406275,5.140761 v 3.400491 l 0.41564,0.03586 c 1.30876,0.112922 2.577603,0.978851 3.151195,2.15055 0.456853,0.933232 0.435733,0.601931 0.434718,6.819141 -10e-4,6.19305 0.01295,5.963123 -0.415136,6.837432 -0.334175,0.68251 -1.100012,1.435834 -1.80301,1.773549 -0.970524,0.466233 -0.472205,0.444067 -9.801131,0.435957 -4.581939,-0.004 -8.462047,-0.02934 -8.622461,-0.05635 z m 9.185642,-4.055045 c 0.08257,-0.05882 0.207267,-0.183406 0.277094,-0.276854 0.12008,-0.160702 0.128625,-0.272835 0.157746,-2.07003 l 0.03079,-1.900125 0.260725,-0.188776 c 1.103204,-0.798769 0.83229,-2.583679 -0.48165,-3.173339 -0.340129,-0.152641 -0.434843,-0.168199 -0.881335,-0.144764 -0.588933,0.03091 -1.027977,0.231924 -1.364009,0.624501 -0.358859,0.419247 -0.48193,0.749607 -0.485581,1.303447 -0.0028,0.419756 0.02249,0.545099 0.170743,0.847513 0.106347,0.216927 0.291753,0.456317 0.476902,0.615764 l 0.302913,0.260861 3.69e-4,1.662562 c 3.7e-4,1.73521 0.03263,2.013472 0.264253,2.280746 0.281656,0.325008 0.924713,0.405195 1.271038,0.158494 z m 3.452081,-16.936016 c 0,-1.825342 -0.02629,-3.20263 -0.0667,-3.494458 -0.234825,-1.695757 -1.509648,-3.045027 -3.194141,-3.380671 -1.689272,-0.336596 -3.498816,0.552615 -4.250694,2.088793 -0.435545,0.889872 -0.431814,0.850836 -0.431814,4.517724 v 3.281398 h 3.971675 3.971675 z"
   id="path1857" /><path
   style="fill:#ffffff;fill-opacity:1;stroke:#0f9ac9;stroke-width:0.0615764;stroke-opacity:1"
   d="M 4.334253,30.78268 C 3.1941358,30.64965 2.0602526,30.096509 1.2623153,29.2841 0.71075837,28.72254 0.43860632,28.302401 0.19576442,27.637599 L 0.03078818,27.185961 0.0122538,24.688959 c -0.01847615,-2.489156 -0.01807071,-2.498462 0.12902717,-2.961676 0.17891133,-0.563396 0.5035255,-1.068102 0.92763093,-1.442269 0.4179535,-0.368739 1.2781365,-0.789159 2.040694,-0.997401 l 0.6157636,-0.168155 11.8499375,-0.01662 11.849937,-0.01662 -0.137679,0.146553 c -0.07572,0.0806 -0.198837,0.295903 -0.273583,0.478441 -0.133039,0.324892 -0.136552,0.403246 -0.166691,3.717854 l -0.03079,3.385967 -0.281992,0.04031 c -1.187154,0.169695 -2.237171,1.730902 -2.48979,3.701919 l -0.03749,0.292488 -9.617532,-0.008 C 9.1000573,30.837374 4.575106,30.810783 4.334253,30.78268 Z"
   id="path1896" /><path
   style="fill:#ffffff;fill-opacity:1;stroke:#0f9ac9;stroke-width:0.0615764;stroke-opacity:1"
   d="M 3.8485222,15.599764 C 3.0753231,15.434435 2.1915692,15.006177 1.5612042,14.491355 0.88497081,13.939071 0.28559648,12.995592 0.09360273,12.181194 -0.03735653,11.625692 -0.0407015,7.2704822 0.08945553,6.7814632 0.24576409,6.1941892 0.49060905,5.7793741 0.94913147,5.3250049 1.7384353,4.5428504 2.8736259,4.1188466 4.490589,4.0022392 c 1.1030952,-0.07955 35.559436,-0.080879 36.488475,-0.00141 0.884634,0.075673 1.291535,0.1852964 1.998417,0.5383954 0.800334,0.39978 1.41507,1.0020841 1.777696,1.7417472 0.437796,0.8929915 0.453634,1.0178707 0.427934,3.3742011 -0.0215,1.9715631 -0.02975,2.0966311 -0.165227,2.5061551 -0.120574,0.364467 -0.337613,0.864813 -0.410562,0.94648 -0.01122,0.01256 -0.174242,-0.114285 -0.362275,-0.281876 -0.441351,-0.393369 -1.276222,-0.889573 -1.906519,-1.133134 -1.120642,-0.433041 -2.353734,-0.657378 -3.976459,-0.723436 -2.332014,-0.09493 -3.864007,0.163529 -5.459954,0.92115 -1.486031,0.705439 -2.907734,2.028089 -3.641281,3.387585 l -0.227583,0.421781 -12.376847,-0.004 C 5.9100579,15.69246 4.222773,15.679792 3.8485222,15.599767 Z"
   id="path1935" /></svg>
