<?xml version="1.0" encoding="UTF-8" standalone="no"?>
<svg
   width="17"
   height="13"
   viewBox="0 0 17 13"
   fill="none"
   version="1.1"
   id="svg3"
   sodipodi:docname="userticketticket utilisateur.svg"
   inkscape:version="1.3 (0e150ed6c4, 2023-07-21)"
   xmlns:inkscape="http://www.inkscape.org/namespaces/inkscape"
   xmlns:sodipodi="http://sodipodi.sourceforge.net/DTD/sodipodi-0.dtd"
   xmlns="http://www.w3.org/2000/svg"
   xmlns:svg="http://www.w3.org/2000/svg">
  <defs
     id="defs3" />
  <sodipodi:namedview
     id="namedview3"
     pagecolor="#ffffff"
     bordercolor="#000000"
     borderopacity="0.25"
     inkscape:showpageshadow="2"
     inkscape:pageopacity="0.0"
     inkscape:pagecheckerboard="0"
     inkscape:deskcolor="#d1d1d1"
     inkscape:zoom="60.538462"
     inkscape:cx="8.5069886"
     inkscape:cy="6.5"
     inkscape:window-width="1920"
     inkscape:window-height="1001"
     inkscape:window-x="-9"
     inkscape:window-y="-9"
     inkscape:window-maximized="1"
     inkscape:current-layer="svg3" />
  <path
     d="M3.34218 9.12803C4.17875 8.95319 4.98685 8.66303 5.7432 8.26592C6.57556 7.78697 6.12737 6.98872 6.09535 6.861C6.06334 6.73328 5.48709 5.67959 5.35904 5.23257C5.19897 4.81748 4.62272 2.93361 5.13494 1.6564C5.37273 1.05809 5.79988 0.553579 6.35146 0.219553C5.73986 -0.0202313 5.06874 -0.0648558 4.43064 0.0918331C4.1038 0.190836 3.80403 0.363174 3.55431 0.595634C3.30459 0.828093 3.11157 1.1145 2.99002 1.43289C2.60586 2.42273 3.05405 3.85958 3.18211 4.21081C3.31016 4.53011 3.72634 5.36029 3.75835 5.45608C3.79037 5.55187 4.14252 6.15854 3.50224 6.50977C2.9135 6.7944 2.28893 6.99847 1.64545 7.11644C1.41763 7.16706 1.20547 7.2719 1.02709 7.42202C0.848698 7.57215 0.709376 7.76309 0.621011 7.97855C0.503996 8.48058 0.471539 8.99853 0.52497 9.51119H2.73392C2.926 9.54312 3.11808 9.19189 3.34218 9.12803Z"
     fill="#333333"
     id="path1" />
  <path
     d="M14.3548 12.7681V10.7884C14.3548 10.7884 14.4509 9.60699 13.3304 9.31962C12.2419 9.00032 11.2495 8.84066 10.6412 8.42557C10.4431 8.31005 10.2965 8.12368 10.2311 7.90428C10.1657 7.68488 10.1864 7.44888 10.2891 7.24416C10.3851 7.05258 11.1535 5.77538 11.3776 4.65783C11.6017 3.54028 11.8258 2.10343 10.8333 0.985878C9.8409 -0.131673 7.98411 0.0279771 7.63196 0.187627C7.21618 0.324625 6.835 0.549628 6.51452 0.847226C6.19404 1.14482 5.94183 1.50799 5.77516 1.91185C5.26294 3.15712 5.8712 5.04099 5.99926 5.48801C6.15933 5.9031 6.70356 6.95679 6.73557 7.08451C6.76759 7.21223 7.21578 7.97855 6.38342 8.45751C5.55107 8.93646 4.52663 9.09611 3.9824 9.25576C3.67742 9.36791 3.40135 9.54648 3.17429 9.77847C2.94723 10.0105 2.7749 10.29 2.66983 10.5968C2.41372 11.2354 2.54178 12.8 2.54178 12.8H14.3548V12.7681Z"
     fill="#333333"
     id="path2" />
  <path
     d="M15.6675 7.18008C14.8031 6.95657 14.0348 6.79692 13.5866 6.50955C13.4339 6.4307 13.3127 6.30238 13.2429 6.14569C13.1731 5.98901 13.1588 5.81329 13.2024 5.64744C13.1971 5.56779 13.2198 5.48877 13.2664 5.42393C13.6506 5.87095 15.1873 5.42393 15.1873 5.42393C15.1873 5.42393 14.483 4.81726 14.3869 2.86953C14.1948 1.65619 14.1308 1.14531 13.5226 0.666355C13.2111 0.39693 12.8373 0.209135 12.4349 0.119939C12.0325 0.0307432 11.6141 0.0429562 11.2176 0.155475C11.1535 0.187405 11.0575 0.219335 10.9294 0.283195C10.9615 0.283195 10.9935 0.378985 11.0255 0.378985V0.442845C11.2176 0.442845 11.4096 0.666355 11.6017 0.857936C12.5942 1.97549 12.3701 3.38041 12.146 4.49796C11.9219 5.61551 11.1535 6.89271 11.0575 7.08429C10.9631 7.2904 10.9467 7.52365 11.0115 7.74086C11.0762 7.95807 11.2177 8.14453 11.4096 8.2657C12.2586 8.71937 13.1624 9.06274 14.0988 9.28746C14.2589 9.31939 14.3869 9.60676 14.483 9.60676H16.4998V8.39342C16.4998 8.32956 16.5318 7.40359 15.6675 7.18008Z"
     fill="#333333"
     id="path3" />
  <path
     style="fill:#ffffff;stroke-width:0.0165184"
     d="M 0.50313911,9.3287802 C 0.47805099,8.9293581 0.52301533,8.3467189 0.60299851,8.034822 0.67200289,7.7657372 0.93191788,7.4454466 1.2141042,7.2817628 1.3775842,7.1869352 1.5053589,7.1425119 1.8019991,7.0773698 2.4324771,6.938917 3.0794752,6.7190834 3.4930724,6.5027858 3.77741,6.3540866 3.9108009,6.1086982 3.8656128,5.8174534 3.8415418,5.6623122 3.7768054,5.5039192 3.4906979,4.9001341 3.160304,4.2028899 3.1230356,4.1070717 3.0150345,3.6771866 2.8233375,2.9141613 2.7819111,2.2570521 2.8931391,1.7436725 2.9820738,1.333188 3.1691403,0.98825171 3.4722461,0.67584251 3.9027776,0.23209683 4.3758638,0.03020545 5.0620674,-0.0026198 5.4580161,-0.02156041 5.9965075,0.06404501 6.3096508,0.19571184 l 0.053783,0.0226143 -0.1165808,0.0782172 C 5.6767348,0.67905148 5.2464787,1.2615893 5.0606468,1.9025878 4.9852973,2.1624938 4.9526577,2.4057765 4.9434355,2.7762334 c -0.019323,0.7761915 0.1240259,1.6038662 0.4273404,2.4674018 0.1080467,0.3076086 0.1475193,0.396856 0.4606942,1.0416253 0.1461285,0.3008517 0.2922926,0.6276169 0.3324956,0.7433291 0.071463,0.2056838 0.071739,0.2073771 0.071739,0.4389836 V 7.7000764 L 6.166693,7.8393489 C 6.0476955,8.0794957 5.8879316,8.2118481 5.4844045,8.4045737 4.9028948,8.6823039 4.2641422,8.912077 3.658831,9.0612721 3.4680432,9.1082967 3.291104,9.157458 3.2656329,9.1705195 3.2401616,9.1835809 3.1520284,9.25359 3.069781,9.3260951 2.8231677,9.5434972 2.9715524,9.5228717 1.65413,9.5228717 H 0.51533021 Z"
     id="path4" />
  <path
     style="fill:#ffffff;stroke-width:0.0165184"
     d="M 2.536385,12.78939 C 2.5204257,12.738026 2.509969,12.398048 2.5103471,11.942821 2.5110452,11.1024 2.5717667,10.736814 2.779199,10.324146 2.9307007,10.022747 3.1917942,9.7179979 3.4656957,9.5228642 3.742665,9.3255452 3.8700959,9.2762399 4.5517293,9.102657 5.4267912,8.879816 5.7752832,8.7613796 6.2109276,8.5387717 6.5585884,8.3611221 6.7347912,8.1990366 6.8247218,7.9741541 6.8800952,7.8356867 6.8800247,7.5358735 6.8245773,7.3589581 6.7562582,7.140973 6.6737588,6.9488793 6.4379409,6.4587039 6.1010307,5.7583958 6.0033914,5.5313475 5.930987,5.2798449 5.5877492,4.0875788 5.4868804,3.0978666 5.6340446,2.3662803 5.7671084,1.7047887 6.1840364,1.065949 6.766892,0.63046987 7.0881213,0.39046422 7.5515102,0.17511404 7.8782889,0.11397166 8.0682972,0.07841991 8.6476116,0.06441526 8.8904901,0.08950217 9.6517045,0.16812793 10.292107,0.44140296 10.729947,0.87444222 11.175209,1.314822 11.433466,1.8448422 11.540788,2.5385245 c 0.03992,0.2580471 0.03947,0.8389232 -9.26e-4,1.178121 -0.03725,0.3128196 -0.128039,0.8313216 -0.191448,1.0933832 -0.153987,0.6364131 -0.465402,1.3704007 -0.967835,2.281134 -0.138285,0.2506605 -0.172193,0.3600709 -0.172193,0.5556096 0,0.3244068 0.138005,0.5741219 0.419875,0.7597476 0.247226,0.1628112 0.492045,0.2742977 0.885081,0.4030515 0.23759,0.077832 0.304627,0.096623 1.065438,0.2986624 1.05506,0.2801787 1.131016,0.3103006 1.368867,0.5428494 0.229282,0.2241704 0.370643,0.5382328 0.403789,0.8971018 0.0062,0.06749 0.0092,0.604023 0.0065,1.192285 l -0.0048,1.069568 H 8.4479722 c -4.7097035,0 -5.9064705,-0.0042 -5.9115872,-0.02065 z"
     id="path5" />
  <path
     style="fill:#ffffff;stroke-width:0.0165184"
     d="M 14.460211,9.6059261 C 14.441122,9.598173 14.375689,9.5363908 14.314805,9.4686324 14.253921,9.4008739 14.180339,9.3333426 14.151291,9.318563 14.122242,9.3037835 14.020426,9.2727368 13.925032,9.2495704 13.246497,9.0847882 12.414148,8.7747825 11.695044,8.4190182 11.394413,8.270286 11.36462,8.2513843 11.248229,8.135548 c -0.203343,-0.2023737 -0.291146,-0.4318658 -0.275,-0.7187754 0.01067,-0.1895485 0.03951,-0.2681355 0.218293,-0.5946633 0.425114,-0.7764484 0.733791,-1.4976129 0.883449,-2.0640072 0.08487,-0.3211839 0.176982,-0.8374954 0.222646,-1.2479369 0.02874,-0.2582991 0.03303,-0.8206555 0.0078,-1.0245756 -0.0909,-0.7353424 -0.386945,-1.333357 -0.894581,-1.80704438 -0.151896,-0.1417371 -0.282564,-0.22428855 -0.355019,-0.22428855 -0.0244,0 -0.03805,-0.009811 -0.03805,-0.027348 0,-0.0150414 -0.01944,-0.0528367 -0.0432,-0.0839894 -0.02419,-0.0317123 -0.03691,-0.0628459 -0.02891,-0.0707386 0.03607,-0.0355664 0.301894,-0.13362867 0.455521,-0.16803913 0.225739,-0.05056225 0.729662,-0.05466239 0.961768,-0.0078254 0.423865,0.08553206 0.821454,0.27820329 1.165622,0.56485793 0.382468,0.31855559 0.540879,0.58773723 0.676854,1.15015493 0.06814,0.2818618 0.179737,0.969094 0.19941,1.2280611 0.05455,0.7180219 0.18025,1.2796267 0.393759,1.7592122 0.09901,0.2223877 0.218935,0.42345 0.320648,0.5375703 0.05377,0.060325 0.07308,0.092644 0.05837,0.097697 -0.131351,0.045125 -0.573088,0.1327751 -0.839464,0.1665682 -0.296382,0.0376 -0.669125,0.027028 -0.827502,-0.023469 -0.05983,-0.019075 -0.139578,-0.056995 -0.177226,-0.084267 l -0.06845,-0.049584 -0.02258,0.045278 c -0.0396,0.079408 -0.067,0.3620214 -0.04597,0.4741457 0.04444,0.2369536 0.180464,0.4163079 0.422995,0.5577373 0.32136,0.187398 0.663935,0.3023352 1.618806,0.5431251 0.538237,0.1357276 0.669603,0.1829632 0.82173,0.2954723 0.180053,0.1331622 0.304694,0.3227752 0.387613,0.5896673 l 0.0452,0.1454856 4.28e-4,0.7598475 4.28e-4,0.7598475 -0.999365,0.00315 c -0.54965,0.00173 -1.014983,-0.00319 -1.034071,-0.010947 z"
     id="path6" />
</svg>
